<?xml version="1.0" encoding="UTF-8"?>
<svg id="Camada_3" data-name="Camada 3" xmlns="http://www.w3.org/2000/svg" xmlns:xlink="http://www.w3.org/1999/xlink" viewBox="0 0 3000 600">
  <defs>
    <style>
      .cls-1 {
        filter: url(#drop-shadow-31);
      }

      .cls-1, .cls-2, .cls-3, .cls-4, .cls-5, .cls-6, .cls-7, .cls-8, .cls-9, .cls-10, .cls-11, .cls-12, .cls-13, .cls-14, .cls-15, .cls-16, .cls-17, .cls-18, .cls-19, .cls-20, .cls-21, .cls-22, .cls-23, .cls-24, .cls-25 {
        fill: #297531;
      }

      .cls-26 {
        filter: url(#drop-shadow-19);
      }

      .cls-26, .cls-27, .cls-28, .cls-29, .cls-30, .cls-31, .cls-32, .cls-33, .cls-34, .cls-35, .cls-36, .cls-37, .cls-38, .cls-39, .cls-40, .cls-41, .cls-42, .cls-43, .cls-44, .cls-45, .cls-46, .cls-47, .cls-48, .cls-49 {
        fill: #246f2d;
      }

      .cls-2 {
        filter: url(#drop-shadow-33);
      }

      .cls-27 {
        filter: url(#drop-shadow-30);
      }

      .cls-3 {
        filter: url(#drop-shadow-49);
      }

      .cls-4 {
        filter: url(#drop-shadow-29);
      }

      .cls-28 {
        filter: url(#drop-shadow-24);
      }

      .cls-29 {
        filter: url(#drop-shadow-44);
      }

      .cls-30 {
        filter: url(#drop-shadow-34);
      }

      .cls-31 {
        filter: url(#drop-shadow-39);
      }

      .cls-32 {
        filter: url(#drop-shadow-11);
      }

      .cls-5 {
        filter: url(#drop-shadow-22);
      }

      .cls-6 {
        filter: url(#drop-shadow-47);
      }

      .cls-33 {
        filter: url(#drop-shadow-38);
      }

      .cls-7 {
        filter: url(#drop-shadow-28);
      }

      .cls-34 {
        filter: url(#drop-shadow-27);
      }

      .cls-35 {
        filter: url(#drop-shadow-23);
      }

      .cls-8 {
        filter: url(#drop-shadow-12);
      }

      .cls-9 {
        filter: url(#drop-shadow-37);
      }

      .cls-36 {
        filter: url(#drop-shadow-46);
      }

      .cls-10 {
        filter: url(#drop-shadow-6);
      }

      .cls-11 {
        filter: url(#drop-shadow-8);
      }

      .cls-12 {
        filter: url(#drop-shadow-20);
      }

      .cls-13 {
        filter: url(#drop-shadow-40);
      }

      .cls-37 {
        filter: url(#drop-shadow-13);
      }

      .cls-38 {
        filter: url(#drop-shadow-32);
      }

      .cls-39 {
        filter: url(#drop-shadow-15);
      }

      .cls-14 {
        filter: url(#drop-shadow-48);
      }

      .cls-40 {
        filter: url(#drop-shadow-36);
      }

      .cls-41 {
        filter: url(#drop-shadow-42);
      }

      .cls-42 {
        filter: url(#drop-shadow-4);
      }

      .cls-15 {
        filter: url(#drop-shadow-10);
      }

      .cls-43 {
        filter: url(#drop-shadow-7);
      }

      .cls-16 {
        filter: url(#drop-shadow-43);
      }

      .cls-44 {
        filter: url(#drop-shadow-25);
      }

      .cls-45 {
        filter: url(#drop-shadow-9);
      }

      .cls-17 {
        filter: url(#drop-shadow-17);
      }

      .cls-46 {
        filter: url(#drop-shadow-21);
      }

      .cls-47 {
        filter: url(#drop-shadow-1);
      }

      .cls-18 {
        filter: url(#drop-shadow-3);
      }

      .cls-19 {
        filter: url(#drop-shadow-45);
      }

      .cls-20 {
        filter: url(#drop-shadow-14);
      }

      .cls-48 {
        filter: url(#drop-shadow-2);
      }

      .cls-21 {
        filter: url(#drop-shadow-5);
      }

      .cls-22 {
        filter: url(#drop-shadow-26);
      }

      .cls-23 {
        filter: url(#drop-shadow-18);
      }

      .cls-24 {
        filter: url(#drop-shadow-35);
      }

      .cls-25 {
        filter: url(#drop-shadow-41);
      }

      .cls-49 {
        filter: url(#drop-shadow-16);
      }
    </style>
    <filter id="drop-shadow-1" filterUnits="userSpaceOnUse">
      <feOffset dx="-8" dy="-3"/>
      <feGaussianBlur result="blur" stdDeviation="5"/>
      <feFlood flood-color="#000" flood-opacity=".3"/>
      <feComposite in2="blur" operator="in"/>
      <feComposite in="SourceGraphic"/>
    </filter>
    <filter id="drop-shadow-2" filterUnits="userSpaceOnUse">
      <feOffset dx="-8" dy="-3"/>
      <feGaussianBlur result="blur-2" stdDeviation="5"/>
      <feFlood flood-color="#000" flood-opacity=".3"/>
      <feComposite in2="blur-2" operator="in"/>
      <feComposite in="SourceGraphic"/>
    </filter>
    <filter id="drop-shadow-3" filterUnits="userSpaceOnUse">
      <feOffset dx="-8" dy="-3"/>
      <feGaussianBlur result="blur-3" stdDeviation="5"/>
      <feFlood flood-color="#000" flood-opacity=".3"/>
      <feComposite in2="blur-3" operator="in"/>
      <feComposite in="SourceGraphic"/>
    </filter>
    <filter id="drop-shadow-4" filterUnits="userSpaceOnUse">
      <feOffset dx="-8" dy="-3"/>
      <feGaussianBlur result="blur-4" stdDeviation="5"/>
      <feFlood flood-color="#000" flood-opacity=".3"/>
      <feComposite in2="blur-4" operator="in"/>
      <feComposite in="SourceGraphic"/>
    </filter>
    <filter id="drop-shadow-5" filterUnits="userSpaceOnUse">
      <feOffset dx="-8" dy="-3"/>
      <feGaussianBlur result="blur-5" stdDeviation="5"/>
      <feFlood flood-color="#000" flood-opacity=".3"/>
      <feComposite in2="blur-5" operator="in"/>
      <feComposite in="SourceGraphic"/>
    </filter>
    <filter id="drop-shadow-6" filterUnits="userSpaceOnUse">
      <feOffset dx="-8" dy="-3"/>
      <feGaussianBlur result="blur-6" stdDeviation="5"/>
      <feFlood flood-color="#000" flood-opacity=".3"/>
      <feComposite in2="blur-6" operator="in"/>
      <feComposite in="SourceGraphic"/>
    </filter>
    <filter id="drop-shadow-7" filterUnits="userSpaceOnUse">
      <feOffset dx="-8" dy="-3"/>
      <feGaussianBlur result="blur-7" stdDeviation="5"/>
      <feFlood flood-color="#000" flood-opacity=".3"/>
      <feComposite in2="blur-7" operator="in"/>
      <feComposite in="SourceGraphic"/>
    </filter>
    <filter id="drop-shadow-8" filterUnits="userSpaceOnUse">
      <feOffset dx="-8" dy="-3"/>
      <feGaussianBlur result="blur-8" stdDeviation="5"/>
      <feFlood flood-color="#000" flood-opacity=".3"/>
      <feComposite in2="blur-8" operator="in"/>
      <feComposite in="SourceGraphic"/>
    </filter>
    <filter id="drop-shadow-9" filterUnits="userSpaceOnUse">
      <feOffset dx="-8" dy="-3"/>
      <feGaussianBlur result="blur-9" stdDeviation="5"/>
      <feFlood flood-color="#000" flood-opacity=".3"/>
      <feComposite in2="blur-9" operator="in"/>
      <feComposite in="SourceGraphic"/>
    </filter>
    <filter id="drop-shadow-10" filterUnits="userSpaceOnUse">
      <feOffset dx="-8" dy="-3"/>
      <feGaussianBlur result="blur-10" stdDeviation="5"/>
      <feFlood flood-color="#000" flood-opacity=".3"/>
      <feComposite in2="blur-10" operator="in"/>
      <feComposite in="SourceGraphic"/>
    </filter>
    <filter id="drop-shadow-11" filterUnits="userSpaceOnUse">
      <feOffset dx="-8" dy="-3"/>
      <feGaussianBlur result="blur-11" stdDeviation="5"/>
      <feFlood flood-color="#000" flood-opacity=".3"/>
      <feComposite in2="blur-11" operator="in"/>
      <feComposite in="SourceGraphic"/>
    </filter>
    <filter id="drop-shadow-12" filterUnits="userSpaceOnUse">
      <feOffset dx="-8" dy="-3"/>
      <feGaussianBlur result="blur-12" stdDeviation="5"/>
      <feFlood flood-color="#000" flood-opacity=".3"/>
      <feComposite in2="blur-12" operator="in"/>
      <feComposite in="SourceGraphic"/>
    </filter>
    <filter id="drop-shadow-13" filterUnits="userSpaceOnUse">
      <feOffset dx="-8" dy="-3"/>
      <feGaussianBlur result="blur-13" stdDeviation="5"/>
      <feFlood flood-color="#000" flood-opacity=".3"/>
      <feComposite in2="blur-13" operator="in"/>
      <feComposite in="SourceGraphic"/>
    </filter>
    <filter id="drop-shadow-14" filterUnits="userSpaceOnUse">
      <feOffset dx="-8" dy="-3"/>
      <feGaussianBlur result="blur-14" stdDeviation="5"/>
      <feFlood flood-color="#000" flood-opacity=".3"/>
      <feComposite in2="blur-14" operator="in"/>
      <feComposite in="SourceGraphic"/>
    </filter>
    <filter id="drop-shadow-15" filterUnits="userSpaceOnUse">
      <feOffset dx="-8" dy="-3"/>
      <feGaussianBlur result="blur-15" stdDeviation="5"/>
      <feFlood flood-color="#000" flood-opacity=".3"/>
      <feComposite in2="blur-15" operator="in"/>
      <feComposite in="SourceGraphic"/>
    </filter>
    <filter id="drop-shadow-16" filterUnits="userSpaceOnUse">
      <feOffset dx="-8" dy="-3"/>
      <feGaussianBlur result="blur-16" stdDeviation="5"/>
      <feFlood flood-color="#000" flood-opacity=".3"/>
      <feComposite in2="blur-16" operator="in"/>
      <feComposite in="SourceGraphic"/>
    </filter>
    <filter id="drop-shadow-17" filterUnits="userSpaceOnUse">
      <feOffset dx="-8" dy="-3"/>
      <feGaussianBlur result="blur-17" stdDeviation="5"/>
      <feFlood flood-color="#000" flood-opacity=".3"/>
      <feComposite in2="blur-17" operator="in"/>
      <feComposite in="SourceGraphic"/>
    </filter>
    <filter id="drop-shadow-18" filterUnits="userSpaceOnUse">
      <feOffset dx="-8" dy="-3"/>
      <feGaussianBlur result="blur-18" stdDeviation="5"/>
      <feFlood flood-color="#000" flood-opacity=".3"/>
      <feComposite in2="blur-18" operator="in"/>
      <feComposite in="SourceGraphic"/>
    </filter>
    <filter id="drop-shadow-19" filterUnits="userSpaceOnUse">
      <feOffset dx="-8" dy="-3"/>
      <feGaussianBlur result="blur-19" stdDeviation="5"/>
      <feFlood flood-color="#000" flood-opacity=".3"/>
      <feComposite in2="blur-19" operator="in"/>
      <feComposite in="SourceGraphic"/>
    </filter>
    <filter id="drop-shadow-20" filterUnits="userSpaceOnUse">
      <feOffset dx="-8" dy="-3"/>
      <feGaussianBlur result="blur-20" stdDeviation="5"/>
      <feFlood flood-color="#000" flood-opacity=".3"/>
      <feComposite in2="blur-20" operator="in"/>
      <feComposite in="SourceGraphic"/>
    </filter>
    <filter id="drop-shadow-21" filterUnits="userSpaceOnUse">
      <feOffset dx="-8" dy="-3"/>
      <feGaussianBlur result="blur-21" stdDeviation="5"/>
      <feFlood flood-color="#000" flood-opacity=".3"/>
      <feComposite in2="blur-21" operator="in"/>
      <feComposite in="SourceGraphic"/>
    </filter>
    <filter id="drop-shadow-22" filterUnits="userSpaceOnUse">
      <feOffset dx="-8" dy="-3"/>
      <feGaussianBlur result="blur-22" stdDeviation="5"/>
      <feFlood flood-color="#000" flood-opacity=".3"/>
      <feComposite in2="blur-22" operator="in"/>
      <feComposite in="SourceGraphic"/>
    </filter>
    <filter id="drop-shadow-23" filterUnits="userSpaceOnUse">
      <feOffset dx="-8" dy="-3"/>
      <feGaussianBlur result="blur-23" stdDeviation="5"/>
      <feFlood flood-color="#000" flood-opacity=".3"/>
      <feComposite in2="blur-23" operator="in"/>
      <feComposite in="SourceGraphic"/>
    </filter>
    <filter id="drop-shadow-24" filterUnits="userSpaceOnUse">
      <feOffset dx="-8" dy="-3"/>
      <feGaussianBlur result="blur-24" stdDeviation="5"/>
      <feFlood flood-color="#000" flood-opacity=".3"/>
      <feComposite in2="blur-24" operator="in"/>
      <feComposite in="SourceGraphic"/>
    </filter>
    <filter id="drop-shadow-25" filterUnits="userSpaceOnUse">
      <feOffset dx="-8" dy="-3"/>
      <feGaussianBlur result="blur-25" stdDeviation="5"/>
      <feFlood flood-color="#000" flood-opacity=".3"/>
      <feComposite in2="blur-25" operator="in"/>
      <feComposite in="SourceGraphic"/>
    </filter>
    <filter id="drop-shadow-26" filterUnits="userSpaceOnUse">
      <feOffset dx="-8" dy="-3"/>
      <feGaussianBlur result="blur-26" stdDeviation="5"/>
      <feFlood flood-color="#000" flood-opacity=".3"/>
      <feComposite in2="blur-26" operator="in"/>
      <feComposite in="SourceGraphic"/>
    </filter>
    <filter id="drop-shadow-27" filterUnits="userSpaceOnUse">
      <feOffset dx="-8" dy="-3"/>
      <feGaussianBlur result="blur-27" stdDeviation="5"/>
      <feFlood flood-color="#000" flood-opacity=".3"/>
      <feComposite in2="blur-27" operator="in"/>
      <feComposite in="SourceGraphic"/>
    </filter>
    <filter id="drop-shadow-28" filterUnits="userSpaceOnUse">
      <feOffset dx="-8" dy="-3"/>
      <feGaussianBlur result="blur-28" stdDeviation="5"/>
      <feFlood flood-color="#000" flood-opacity=".3"/>
      <feComposite in2="blur-28" operator="in"/>
      <feComposite in="SourceGraphic"/>
    </filter>
    <filter id="drop-shadow-29" filterUnits="userSpaceOnUse">
      <feOffset dx="-8" dy="-3"/>
      <feGaussianBlur result="blur-29" stdDeviation="5"/>
      <feFlood flood-color="#000" flood-opacity=".3"/>
      <feComposite in2="blur-29" operator="in"/>
      <feComposite in="SourceGraphic"/>
    </filter>
    <filter id="drop-shadow-30" filterUnits="userSpaceOnUse">
      <feOffset dx="-8" dy="-3"/>
      <feGaussianBlur result="blur-30" stdDeviation="5"/>
      <feFlood flood-color="#000" flood-opacity=".3"/>
      <feComposite in2="blur-30" operator="in"/>
      <feComposite in="SourceGraphic"/>
    </filter>
    <filter id="drop-shadow-31" filterUnits="userSpaceOnUse">
      <feOffset dx="-8" dy="-3"/>
      <feGaussianBlur result="blur-31" stdDeviation="5"/>
      <feFlood flood-color="#000" flood-opacity=".3"/>
      <feComposite in2="blur-31" operator="in"/>
      <feComposite in="SourceGraphic"/>
    </filter>
    <filter id="drop-shadow-32" filterUnits="userSpaceOnUse">
      <feOffset dx="-8" dy="-3"/>
      <feGaussianBlur result="blur-32" stdDeviation="5"/>
      <feFlood flood-color="#000" flood-opacity=".3"/>
      <feComposite in2="blur-32" operator="in"/>
      <feComposite in="SourceGraphic"/>
    </filter>
    <filter id="drop-shadow-33" filterUnits="userSpaceOnUse">
      <feOffset dx="-8" dy="-3"/>
      <feGaussianBlur result="blur-33" stdDeviation="5"/>
      <feFlood flood-color="#000" flood-opacity=".3"/>
      <feComposite in2="blur-33" operator="in"/>
      <feComposite in="SourceGraphic"/>
    </filter>
    <filter id="drop-shadow-34" filterUnits="userSpaceOnUse">
      <feOffset dx="-8" dy="-3"/>
      <feGaussianBlur result="blur-34" stdDeviation="5"/>
      <feFlood flood-color="#000" flood-opacity=".3"/>
      <feComposite in2="blur-34" operator="in"/>
      <feComposite in="SourceGraphic"/>
    </filter>
    <filter id="drop-shadow-35" filterUnits="userSpaceOnUse">
      <feOffset dx="-8" dy="-3"/>
      <feGaussianBlur result="blur-35" stdDeviation="5"/>
      <feFlood flood-color="#000" flood-opacity=".3"/>
      <feComposite in2="blur-35" operator="in"/>
      <feComposite in="SourceGraphic"/>
    </filter>
    <filter id="drop-shadow-36" filterUnits="userSpaceOnUse">
      <feOffset dx="-8" dy="-3"/>
      <feGaussianBlur result="blur-36" stdDeviation="5"/>
      <feFlood flood-color="#000" flood-opacity=".3"/>
      <feComposite in2="blur-36" operator="in"/>
      <feComposite in="SourceGraphic"/>
    </filter>
    <filter id="drop-shadow-37" filterUnits="userSpaceOnUse">
      <feOffset dx="-8" dy="-3"/>
      <feGaussianBlur result="blur-37" stdDeviation="5"/>
      <feFlood flood-color="#000" flood-opacity=".3"/>
      <feComposite in2="blur-37" operator="in"/>
      <feComposite in="SourceGraphic"/>
    </filter>
    <filter id="drop-shadow-38" filterUnits="userSpaceOnUse">
      <feOffset dx="-8" dy="-3"/>
      <feGaussianBlur result="blur-38" stdDeviation="5"/>
      <feFlood flood-color="#000" flood-opacity=".3"/>
      <feComposite in2="blur-38" operator="in"/>
      <feComposite in="SourceGraphic"/>
    </filter>
    <filter id="drop-shadow-39" filterUnits="userSpaceOnUse">
      <feOffset dx="-8" dy="-3"/>
      <feGaussianBlur result="blur-39" stdDeviation="5"/>
      <feFlood flood-color="#000" flood-opacity=".3"/>
      <feComposite in2="blur-39" operator="in"/>
      <feComposite in="SourceGraphic"/>
    </filter>
    <filter id="drop-shadow-40" filterUnits="userSpaceOnUse">
      <feOffset dx="-8" dy="-3"/>
      <feGaussianBlur result="blur-40" stdDeviation="5"/>
      <feFlood flood-color="#000" flood-opacity=".3"/>
      <feComposite in2="blur-40" operator="in"/>
      <feComposite in="SourceGraphic"/>
    </filter>
    <filter id="drop-shadow-41" filterUnits="userSpaceOnUse">
      <feOffset dx="-8" dy="-3"/>
      <feGaussianBlur result="blur-41" stdDeviation="5"/>
      <feFlood flood-color="#000" flood-opacity=".3"/>
      <feComposite in2="blur-41" operator="in"/>
      <feComposite in="SourceGraphic"/>
    </filter>
    <filter id="drop-shadow-42" filterUnits="userSpaceOnUse">
      <feOffset dx="-8" dy="-3"/>
      <feGaussianBlur result="blur-42" stdDeviation="5"/>
      <feFlood flood-color="#000" flood-opacity=".3"/>
      <feComposite in2="blur-42" operator="in"/>
      <feComposite in="SourceGraphic"/>
    </filter>
    <filter id="drop-shadow-43" filterUnits="userSpaceOnUse">
      <feOffset dx="-8" dy="-3"/>
      <feGaussianBlur result="blur-43" stdDeviation="5"/>
      <feFlood flood-color="#000" flood-opacity=".3"/>
      <feComposite in2="blur-43" operator="in"/>
      <feComposite in="SourceGraphic"/>
    </filter>
    <filter id="drop-shadow-44" filterUnits="userSpaceOnUse">
      <feOffset dx="-8" dy="-3"/>
      <feGaussianBlur result="blur-44" stdDeviation="5"/>
      <feFlood flood-color="#000" flood-opacity=".3"/>
      <feComposite in2="blur-44" operator="in"/>
      <feComposite in="SourceGraphic"/>
    </filter>
    <filter id="drop-shadow-45" filterUnits="userSpaceOnUse">
      <feOffset dx="-8" dy="-3"/>
      <feGaussianBlur result="blur-45" stdDeviation="5"/>
      <feFlood flood-color="#000" flood-opacity=".3"/>
      <feComposite in2="blur-45" operator="in"/>
      <feComposite in="SourceGraphic"/>
    </filter>
    <filter id="drop-shadow-46" filterUnits="userSpaceOnUse">
      <feOffset dx="-8" dy="-3"/>
      <feGaussianBlur result="blur-46" stdDeviation="5"/>
      <feFlood flood-color="#000" flood-opacity=".3"/>
      <feComposite in2="blur-46" operator="in"/>
      <feComposite in="SourceGraphic"/>
    </filter>
    <filter id="drop-shadow-47" filterUnits="userSpaceOnUse">
      <feOffset dx="-8" dy="-3"/>
      <feGaussianBlur result="blur-47" stdDeviation="5"/>
      <feFlood flood-color="#000" flood-opacity=".3"/>
      <feComposite in2="blur-47" operator="in"/>
      <feComposite in="SourceGraphic"/>
    </filter>
    <filter id="drop-shadow-48" filterUnits="userSpaceOnUse">
      <feOffset dx="-8" dy="-3"/>
      <feGaussianBlur result="blur-48" stdDeviation="5"/>
      <feFlood flood-color="#000" flood-opacity=".3"/>
      <feComposite in2="blur-48" operator="in"/>
      <feComposite in="SourceGraphic"/>
    </filter>
    <filter id="drop-shadow-49" filterUnits="userSpaceOnUse">
      <feOffset dx="-8" dy="-3"/>
      <feGaussianBlur result="blur-49" stdDeviation="5"/>
      <feFlood flood-color="#000" flood-opacity=".3"/>
      <feComposite in2="blur-49" operator="in"/>
      <feComposite in="SourceGraphic"/>
    </filter>
  </defs>
  <path class="cls-47" d="M1015.38,611.29c4.16-7.37,9.62-15.76,16.76-24.52,8.29-10.16,16.75-18.25,24.22-24.52-6.45,2.4-14.21,5.88-22.35,10.99-10.99,6.89-18.87,14.36-24.22,20.29,.84-3.88,2.24-9.17,4.66-15.22,13.92-34.93,44.73-53.12,43.77-54.11-.72-.75-19.09,8.84-37.25,28.75-19.52,21.4-25.82,40.47-27.94,39.74-2.16-.75,5.82-20.06,17.7-60.87,5.59-19.22,8.07-29.52,15.83-44.81,8.15-16.06,16.22-25.98,15.83-26.21-.6-.35-21.86,21.95-37.25,53.26-19.72,40.1-19.83,74.66-22.35,74.4-2.23-.23-1.2-27.07,.93-51.57,3.25-37.42,8.25-59.7,6.52-60.03-1.63-.31-8.41,19.22-13.04,40.58-6.94,32-6.22,54.94-8.38,54.95-1.56,.01-2.1-11.91-5.59-32.13-4.34-25.18-10.39-46.63-11.18-46.5-.55,.09,1.71,10.69,3.73,27.05,2.81,22.77,5.56,60.14,.93,60.87-2.71,.43-7.18-11.86-9.31-17.75-7.24-19.95-15.26-51.88-13.04-97.23-2.15,11.36-4.28,28.11-2.79,48.19,2.96,40.07,18.69,71.73,15.83,72.71-1.11,.38-3.62-4.35-12.11-16.91-8.34-12.34-18.79-27.81-20.49-27.05-1.58,.7,4.24,15.53,11.18,28.75,8.74,16.64,17.52,27.41,16.76,27.9-.83,.54-9.12-13.61-24.22-24.52-28.13-20.34-65.96-19.37-66.13-18.6-.08,.4,9.72,.71,24.22,5.92,33.26,11.95,52.69,35.82,52.16,36.35-.25,.25-4.85-5.01-13.97-7.61-2.68-.76-12.03-3.3-20.49,.85-4.84,2.37-7.92,6.21-7.45,6.76,.59,.69,5.98-4.69,13.97-5.07,6.82-.33,15.81,2.96,17.7,9.3,.93,3.12-.15,6.01-.93,7.61,32.6,0,65.2,0,97.79,0Z"/>
  <path class="cls-48" d="M353.61,611.45c6.13-11.5,14.18-24.59,24.71-38.26,12.22-15.85,24.7-28.48,35.7-38.26-9.51,3.74-20.95,9.18-32.95,17.15-16.2,10.76-27.82,22.41-35.7,31.66,1.25-6.05,3.31-14.3,6.86-23.75,20.52-54.51,65.94-82.89,64.53-84.43-1.07-1.17-28.14,13.79-54.92,44.85-28.78,33.39-38.06,63.16-41.19,62-3.19-1.17,8.57-31.31,26.09-94.99,8.25-29.99,11.9-46.06,23.34-69.92,12.02-25.06,23.92-40.54,23.34-40.9-.89-.55-32.22,34.25-54.92,83.11-29.06,62.57-29.24,116.49-32.95,116.09-3.28-.35-1.77-42.24,1.37-80.47,4.8-58.39,12.16-93.16,9.61-93.67-2.41-.48-12.39,30-19.22,63.32-10.23,49.93-9.16,85.72-12.36,85.75-2.3,.02-3.1-18.59-8.24-50.13-6.4-39.29-15.31-72.77-16.48-72.56-.82,.15,2.52,16.68,5.49,42.22,4.14,35.53,8.2,93.84,1.37,94.99-4,.67-10.58-18.51-13.73-27.7-10.67-31.13-22.5-80.96-19.22-151.71-3.17,17.73-6.31,43.86-4.12,75.2,4.37,62.53,27.56,111.93,23.34,113.45-1.64,.59-5.33-6.78-17.85-26.38-12.29-19.25-27.71-43.4-30.21-42.22-2.32,1.1,6.24,24.23,16.48,44.85,12.88,25.96,25.83,42.76,24.71,43.53-1.22,.84-13.44-21.23-35.7-38.26-41.47-31.73-97.24-30.23-97.48-29.02-.13,.62,14.32,1.1,35.7,9.23,49.02,18.65,77.67,55.9,76.89,56.73-.37,.4-7.15-7.81-20.59-11.87-3.95-1.19-17.74-5.15-30.21,1.32-7.13,3.7-11.67,9.69-10.98,10.55,.87,1.08,8.81-7.31,20.59-7.92,10.06-.51,23.3,4.62,26.09,14.51,1.37,4.87-.22,9.39-1.37,11.87,48.05,0,96.11,0,144.16,0Z"/>
  <path class="cls-18" d="M507.34,611c6.59-8.98,15.23-19.21,26.55-29.89,13.12-12.39,26.53-22.25,38.34-29.89-10.22,2.92-22.5,7.17-35.4,13.4-17.4,8.41-29.89,17.51-38.34,24.74,1.34-4.73,3.55-11.18,7.37-18.56,22.04-42.59,70.83-64.77,69.32-65.97-1.14-.91-30.23,10.78-58.99,35.05-30.92,26.09-40.88,49.35-44.24,48.45-3.42-.92,9.21-24.46,28.02-74.22,8.86-23.43,12.78-35.99,25.07-54.63,12.91-19.58,25.69-31.68,25.07-31.96-.96-.43-34.61,26.77-58.99,64.94-31.22,48.89-31.4,91.03-35.4,90.71-3.52-.28-1.9-33,1.47-62.88,5.15-45.62,13.06-72.79,10.32-73.19-2.59-.37-13.31,23.44-20.65,49.48-10.99,39.02-9.84,66.98-13.27,67-2.47,.02-3.33-14.53-8.85-39.17-6.87-30.7-16.44-56.86-17.7-56.7-.88,.11,2.71,13.03,5.9,32.99,4.44,27.76,8.8,73.33,1.47,74.22-4.3,.53-11.36-14.47-14.75-21.65-11.46-24.32-24.17-63.26-20.65-118.55-3.41,13.86-6.77,34.28-4.42,58.76,4.69,48.86,29.6,87.46,25.07,88.65-1.76,.46-5.73-5.3-19.17-20.62-13.2-15.04-29.76-33.91-32.45-32.99-2.5,.86,6.71,18.94,17.7,35.05,13.84,20.29,27.75,33.42,26.55,34.02-1.31,.66-14.44-16.59-38.34-29.89-44.55-24.79-104.45-23.62-104.71-22.68-.13,.48,15.39,.86,38.34,7.22,52.66,14.57,83.43,43.68,82.59,44.33-.4,.31-7.68-6.1-22.12-9.28-4.24-.93-19.05-4.02-32.45,1.03-7.66,2.89-12.54,7.57-11.8,8.25,.93,.84,9.46-5.71,22.12-6.19,10.81-.4,25.03,3.61,28.02,11.34,1.47,3.8-.24,7.33-1.47,9.28,51.62,0,103.24,0,154.85,0Z"/>
  <path class="cls-42" d="M637.28,610.23c5.54-7.56,12.82-16.17,22.34-25.16,11.04-10.42,22.33-18.73,32.27-25.16-8.6,2.46-18.94,6.04-29.79,11.28-14.64,7.08-25.15,14.74-32.27,20.82,1.13-3.98,2.99-9.41,6.21-15.62,18.55-35.85,59.61-54.51,58.34-55.53-.96-.77-25.44,9.07-49.65,29.5-26.02,21.96-34.41,42.3-37.24,41.54-2.88-.77,7.75-21.36,23.58-63.23,7.46-19.72,10.75-30.29,21.1-45.98,10.87-16.48,21.62-26.66,21.1-26.9-.8-.36-29.13,22.53-49.65,54.66-26.28,41.15-26.43,77.38-29.79,77.12-2.97-.23-1.6-27.78,1.24-52.92,4.34-38.4,10.99-61.27,8.69-61.6-2.18-.31-11.2,19.73-17.38,41.64-9.25,32.84-8.29,56.37-11.17,56.39-2.08,.01-2.8-12.23-7.45-32.97-5.78-25.84-13.84-47.85-14.89-47.72-.74,.1,2.28,10.97,4.96,27.76,3.74,23.37,7.41,61.71,1.24,62.47-3.62,.44-9.56-12.17-12.41-18.22-9.65-20.47-20.34-53.24-17.38-99.77-2.87,11.66-5.7,28.85-3.72,49.45,3.95,41.12,24.91,73.61,21.1,74.61-1.48,.39-4.82-4.46-16.14-17.35-11.11-12.66-25.05-28.54-27.31-27.76-2.1,.72,5.65,15.94,14.89,29.5,11.65,17.07,23.35,28.12,22.34,28.63-1.1,.55-12.15-13.96-32.27-25.16-37.49-20.87-87.91-19.88-88.13-19.09-.11,.41,12.95,.73,32.27,6.07,44.32,12.26,70.21,36.76,69.51,37.31-.34,.26-6.47-5.14-18.62-7.81-3.57-.78-16.04-3.39-27.31,.87-6.45,2.43-10.55,6.37-9.93,6.94,.78,.71,7.96-4.81,18.62-5.21,9.09-.34,21.07,3.04,23.58,9.54,1.24,3.2-.2,6.17-1.24,7.81,43.44,0,86.89-.77,130.33-.77Z"/>
  <path class="cls-21" d="M741.79,610.23c4.67-5.75,10.8-12.29,18.83-19.13,9.31-7.93,18.82-14.24,27.2-19.13-7.25,1.87-15.96,4.59-25.11,8.58-12.34,5.38-21.2,11.21-27.2,15.83,.95-3.02,2.52-7.15,5.23-11.87,15.63-27.26,50.24-41.45,49.16-42.22-.81-.58-21.44,6.9-41.84,22.43-21.93,16.69-29,31.58-31.38,31-2.43-.59,6.53-15.65,19.88-47.5,6.28-15,9.06-23.03,17.78-34.96,9.16-12.53,18.22-20.27,17.78-20.45-.68-.28-24.55,17.13-41.84,41.56-22.14,31.29-22.27,58.25-25.11,58.05-2.5-.18-1.35-21.12,1.05-40.24,3.66-29.2,9.26-46.58,7.32-46.84-1.83-.24-9.44,15-14.64,31.66-7.79,24.97-6.98,42.86-9.41,42.88-1.75,.01-2.36-9.3-6.28-25.07-4.87-19.65-11.66-36.39-12.55-36.28-.62,.07,1.92,8.34,4.18,21.11,3.15,17.77,6.24,46.92,1.05,47.5-3.05,.34-8.06-9.26-10.46-13.85-8.13-15.57-17.14-40.48-14.64-75.86-2.42,8.87-4.8,21.93-3.14,37.6,3.33,31.27,21,55.97,17.78,56.73-1.25,.3-4.06-3.39-13.6-13.19-9.37-9.63-21.11-21.7-23.01-21.11-1.77,.55,4.76,12.12,12.55,22.43,9.81,12.98,19.68,21.38,18.83,21.77-.93,.42-10.24-10.62-27.2-19.13-31.6-15.87-74.08-15.12-74.27-14.51-.1,.31,10.91,.55,27.2,4.62,37.35,9.32,59.17,27.95,58.58,28.37-.28,.2-5.45-3.91-15.69-5.94-3.01-.6-13.52-2.58-23.01,.66-5.43,1.85-8.89,4.85-8.37,5.28,.66,.54,6.71-3.66,15.69-3.96,7.66-.26,17.76,2.31,19.88,7.26,1.04,2.43-.17,4.69-1.05,5.94h109.84Z"/>
  <path class="cls-10" d="M922.34,611.29c4.94-9.69,11.41-20.72,19.89-32.25,9.83-13.36,19.88-24,28.73-32.25-7.66,3.15-16.86,7.74-26.52,14.45-13.04,9.07-22.39,18.89-28.73,26.69,1-5.1,2.66-12.05,5.53-20.01,16.52-45.94,53.08-69.86,51.94-71.16-.86-.98-22.65,11.62-44.21,37.8-23.17,28.14-30.64,53.23-33.15,52.26-2.57-.99,6.9-26.39,21-80.06,6.64-25.28,9.57-38.82,18.79-58.93,9.67-21.12,19.25-34.17,18.79-34.47-.72-.46-25.94,28.87-44.21,70.05-23.39,52.74-23.53,98.19-26.52,97.85-2.64-.3-1.42-35.6,1.11-67.83,3.86-49.21,9.78-78.52,7.74-78.95-1.94-.4-9.98,25.28-15.47,53.37-8.24,42.08-7.38,72.25-9.95,72.27-1.85,.02-2.5-15.67-6.63-42.25-5.15-33.12-12.32-61.33-13.26-61.15-.66,.12,2.03,14.06,4.42,35.58,3.33,29.95,6.6,79.09,1.11,80.06-3.22,.57-8.51-15.6-11.05-23.35-8.59-26.24-18.11-68.23-15.47-127.87-2.55,14.95-5.08,36.97-3.32,63.38,3.51,52.7,22.18,94.34,18.79,95.62-1.32,.5-4.29-5.72-14.37-22.24-9.89-16.23-22.3-36.58-24.31-35.58-1.87,.93,5.03,20.43,13.26,37.8,10.37,21.88,20.79,36.04,19.89,36.69-.98,.71-10.82-17.9-28.73-32.25-33.38-26.74-78.27-25.48-78.47-24.46-.1,.52,11.53,.93,28.73,7.78,39.46,15.72,62.52,47.11,61.89,47.81-.3,.33-5.76-6.58-16.58-10.01-3.18-1.01-14.28-4.34-24.31,1.11-5.74,3.12-9.4,8.17-8.84,8.9,.7,.91,7.09-6.16,16.58-6.67,8.1-.43,18.76,3.9,21,12.23,1.1,4.1-.18,7.91-1.11,10.01,38.68,0,77.36,0,116.04,0Z"/>
  <path class="cls-43" d="M805.56,610.52c5.87-11.51,13.56-24.62,23.64-38.31,11.68-15.87,23.62-28.52,34.14-38.31-9.1,3.74-20.04,9.19-31.51,17.17-15.49,10.77-26.61,22.44-34.14,31.71,1.19-6.06,3.16-14.32,6.57-23.78,19.63-54.59,63.06-83.01,61.72-84.55-1.02-1.17-26.91,13.81-52.52,44.92-27.53,33.43-36.4,63.25-39.39,62.09-3.05-1.18,8.2-31.35,24.95-95.12,7.89-30.03,11.38-46.12,22.32-70.02,11.49-25.09,22.87-40.6,22.32-40.96-.85-.55-30.82,34.3-52.52,83.23-27.8,62.66-27.96,116.66-31.51,116.26-3.14-.35-1.69-42.3,1.31-80.59,4.59-58.47,11.62-93.29,9.19-93.8-2.3-.48-11.85,30.04-18.38,63.41-9.78,50-8.76,85.84-11.82,85.87-2.2,.02-2.97-18.62-7.88-50.2-6.12-39.35-14.64-72.87-15.76-72.66-.78,.15,2.41,16.7,5.25,42.28,3.96,35.58,7.84,93.97,1.31,95.12-3.83,.67-10.12-18.54-13.13-27.74-10.21-31.17-21.52-81.07-18.38-151.93-3.03,17.76-6.03,43.93-3.94,75.3,4.17,62.62,26.36,112.09,22.32,113.62-1.57,.59-5.1-6.79-17.07-26.42-11.76-19.28-26.5-43.46-28.89-42.28-2.22,1.1,5.97,24.27,15.76,44.92,12.32,26,24.71,42.83,23.64,43.6-1.16,.84-12.86-21.26-34.14-38.31-39.66-31.78-93-30.27-93.23-29.06-.12,.62,13.7,1.11,34.14,9.25,46.89,18.67,74.28,55.98,73.53,56.81-.36,.4-6.84-7.82-19.7-11.89-3.78-1.19-16.97-5.16-28.89,1.32-6.82,3.71-11.17,9.71-10.5,10.57,.83,1.08,8.43-7.32,19.7-7.93,9.62-.52,22.29,4.63,24.95,14.53,1.31,4.88-.21,9.4-1.31,11.89,45.96,0,91.92,0,137.88,0Z"/>
  <path class="cls-11" d="M679.07,610.52c6.04-9.01,13.96-19.28,24.33-30,12.02-12.43,24.31-22.33,35.14-30-9.36,2.93-20.62,7.2-32.43,13.45-15.94,8.44-27.39,17.57-35.14,24.83,1.23-4.74,3.26-11.21,6.76-18.62,20.2-42.74,64.91-64.99,63.52-66.2-1.05-.91-27.7,10.81-54.06,35.17-28.33,26.18-37.46,49.52-40.54,48.62-3.14-.92,8.44-24.55,25.68-74.48,8.12-23.52,11.71-36.11,22.97-54.82,11.83-19.65,23.54-31.79,22.97-32.07-.88-.43-31.72,26.86-54.06,65.17-28.61,49.06-28.78,91.34-32.43,91.03-3.23-.28-1.74-33.12,1.35-63.1,4.72-45.78,11.96-73.05,9.46-73.44-2.37-.38-12.2,23.52-18.92,49.65-10.07,39.15-9.02,67.98-12.16,68-2.27,.02-3.05-14.58-8.11-39.31-6.3-30.81-15.07-57.06-16.22-56.89-.8,.11,2.48,13.08,5.41,33.1,4.07,27.86,8.07,73.58,1.35,74.48-3.94,.53-10.41-14.52-13.51-21.72-10.51-24.41-22.15-63.48-18.92-118.96-3.12,13.9-6.21,34.39-4.05,58.96,4.3,49.03,27.13,87.76,22.97,88.96-1.61,.47-5.25-5.32-17.57-20.69-12.1-15.1-27.27-34.03-29.73-33.1-2.29,.86,6.15,19,16.22,35.17,12.68,20.36,25.43,33.53,24.33,34.14-1.2,.66-13.23-16.65-35.14-30-40.82-24.88-95.71-23.7-95.95-22.76-.12,.49,14.1,.87,35.14,7.24,48.25,14.62,76.45,43.83,75.68,44.48-.37,.31-7.04-6.13-20.27-9.31-3.89-.94-17.46-4.04-29.73,1.03-7.02,2.9-11.49,7.6-10.81,8.28,.85,.84,8.67-5.73,20.27-6.21,9.9-.4,22.94,3.63,25.68,11.38,1.35,3.82-.22,7.36-1.35,9.31,47.3,0,94.6-.77,141.9-.77Z"/>
  <path class="cls-45" d="M544.06,611.29c7.16-11.86,16.56-25.36,28.86-39.45,14.27-16.35,28.85-29.37,41.69-39.45-11.11,3.86-24.47,9.46-38.49,17.69-18.92,11.09-32.5,23.11-41.69,32.65,1.45-6.24,3.87-14.75,8.02-24.49,23.97-56.21,77.02-86.24,75.37-87.84-1.24-1.2-32.87,14.99-64.14,47.02-33.62,34.43-44.45,65.13-48.11,63.94-3.72-1.21,10.01-32.28,30.47-97.95,9.63-30.93,13.89-47.49,27.26-72.1,14.04-25.84,27.94-41.8,27.26-42.17-1.04-.57-37.64,35.32-64.14,85.71-33.95,64.52-34.15,120.13-38.49,119.72-3.83-.37-2.07-43.56,1.6-82.99,5.6-60.21,14.2-96.07,11.23-96.59-2.81-.49-14.48,30.93-22.45,65.3-11.95,51.49-10.7,88.4-14.43,88.43-2.69,.02-3.62-19.17-9.62-51.7-7.47-40.52-17.88-75.04-19.24-74.82-.95,.15,2.94,17.2,6.41,43.53,4.83,36.64,9.57,96.77,1.6,97.95-4.67,.69-12.36-19.09-16.04-28.57-12.47-32.1-26.28-83.48-22.45-156.45-3.71,18.29-7.37,45.23-4.81,77.54,5.1,64.48,32.19,115.42,27.26,117-1.91,.61-6.23-6.99-20.85-27.21-14.36-19.86-32.36-44.75-35.28-43.53-2.72,1.13,7.29,24.99,19.24,46.25,15.04,26.77,30.17,44.1,28.86,44.89-1.42,.86-15.7-21.89-41.69-39.45-48.44-32.72-113.57-31.18-113.86-29.93-.15,.64,16.73,1.14,41.69,9.52,57.26,19.23,90.71,57.64,89.8,58.5-.43,.41-8.36-8.06-24.05-12.24-4.61-1.23-20.72-5.31-35.28,1.36-8.33,3.82-13.64,10-12.83,10.88,1.01,1.11,10.29-7.54,24.05-8.16,11.75-.53,27.22,4.77,30.47,14.96,1.6,5.02-.26,9.68-1.6,12.24h168.38Z"/>
  <path class="cls-15" d="M376.17,611.29c8.51-14.09,19.68-30.13,34.3-46.88,16.95-19.42,34.27-34.9,49.54-46.88-13.2,4.58-29.07,11.25-45.73,21.01-22.48,13.18-38.61,27.46-49.54,38.79,1.73-7.41,4.59-17.52,9.53-29.1,28.48-66.79,91.51-101.56,89.55-103.45-1.48-1.43-39.05,16.9-76.21,54.96-39.94,40.91-52.82,77.38-57.16,75.97-4.42-1.44,11.9-38.36,36.2-116.38,11.45-36.75,16.51-56.43,32.39-85.67,16.68-30.7,33.19-49.67,32.39-50.11-1.23-.67-44.72,41.97-76.21,101.83-40.33,76.67-40.57,142.74-45.73,142.25-4.55-.43-2.45-51.75,1.91-98.6,6.66-71.54,16.87-114.15,13.34-114.77-3.34-.59-17.2,36.76-26.67,77.59-14.2,61.18-12.72,105.03-17.15,105.07-3.19,.03-4.31-22.78-11.43-61.42-8.88-48.14-21.25-89.16-22.86-88.9-1.13,.18,3.5,20.44,7.62,51.73,5.74,43.53,11.37,114.98,1.91,116.38-5.55,.82-14.68-22.68-19.05-33.94-14.81-38.14-31.23-99.19-26.67-185.89-4.4,21.73-8.75,53.75-5.72,92.14,6.06,76.61,38.25,137.14,32.39,139.01-2.27,.73-7.4-8.31-24.77-32.33-17.06-23.59-38.45-53.17-41.92-51.73-3.23,1.35,8.67,29.69,22.86,54.96,17.88,31.81,35.85,52.4,34.3,53.34-1.69,1.03-18.66-26.01-49.54-46.88-57.55-38.88-134.94-37.04-135.28-35.56-.17,.76,19.88,1.35,49.54,11.31,68.03,22.85,107.78,68.49,106.7,69.51-.52,.48-9.93-9.57-28.58-14.55-5.48-1.46-24.62-6.31-41.92,1.62-9.89,4.53-16.2,11.88-15.24,12.93,1.2,1.32,12.23-8.96,28.58-9.7,13.96-.63,32.34,5.67,36.2,17.78,1.9,5.97-.31,11.5-1.91,14.55,66.69,0,133.37,0,200.06,0Z"/>
  <path class="cls-32" d="M177.57,612c7.92-18.03,18.32-38.55,31.93-59.99,15.78-24.86,31.91-44.66,46.12-59.99-12.29,5.86-27.06,14.39-42.57,26.89-20.93,16.87-35.94,35.14-46.12,49.65,1.61-9.48,4.28-22.43,8.87-37.24,26.51-85.47,85.19-129.97,83.37-132.39-1.38-1.83-36.36,21.62-70.95,70.33-37.18,52.35-49.17,99.03-53.21,97.23-4.12-1.84,11.08-49.09,33.7-148.94,10.66-47.03,15.37-72.22,30.15-109.64,15.53-39.29,30.9-64.34,30.15-64.9-1.15-.86-41.63,54.48-70.95,131.09-37.55,98.11-37.77,182.67-42.57,182.04-4.24-.56-2.29-66.23,1.77-126.19,6.2-91.56,15.7-146.08,12.42-146.87-3.11-.75-16.01,47.04-24.83,99.29-13.22,78.3-11.84,134.42-15.96,134.46-2.97,.03-4.01-29.15-10.64-78.61-8.27-61.61-19.78-114.1-21.29-113.78-1.05,.23,3.25,26.15,7.1,66.2,5.34,55.71,10.59,147.14,1.77,148.94-5.17,1.05-13.67-29.03-17.74-43.44-13.79-48.81-29.07-126.94-24.83-237.89-4.1,27.8-8.15,68.78-5.32,117.91,5.64,98.05,35.61,175.51,30.15,177.9-2.12,.93-6.89-10.63-23.06-41.37-15.88-30.19-35.79-68.05-39.02-66.2-3,1.72,8.07,38,21.29,70.33,16.64,40.71,33.37,67.06,31.93,68.27-1.57,1.32-17.37-33.29-46.12-59.99-53.58-49.76-125.62-47.4-125.94-45.51-.16,.97,18.51,1.73,46.12,14.48,63.34,29.24,100.34,87.65,99.33,88.95-.48,.62-9.24-12.25-26.61-18.62-5.1-1.87-22.92-8.08-39.02,2.07-9.21,5.8-15.08,15.2-14.19,16.55,1.12,1.69,11.38-11.47,26.61-12.41,13-.81,30.11,7.25,33.7,22.76,1.77,7.63-.28,14.72-1.77,18.62,62.08,0,124.17,0,186.25,0Z"/>
  <path class="cls-8" d="M1066.22,611c2.71-3.95,6.27-8.46,10.92-13.16,5.4-5.45,10.91-9.8,15.78-13.16-4.2,1.29-9.26,3.16-14.56,5.9-7.16,3.7-12.3,7.71-15.78,10.89,.55-2.08,1.46-4.92,3.03-8.17,9.07-18.75,29.14-28.51,28.52-29.04-.47-.4-12.44,4.74-24.27,15.43-12.72,11.48-16.82,21.72-18.2,21.33-1.41-.4,3.79-10.77,11.53-32.67,3.64-10.32,5.26-15.84,10.31-24.05,5.31-8.62,10.57-13.94,10.31-14.07-.39-.19-14.24,11.78-24.27,28.59-12.84,21.52-12.92,40.07-14.56,39.93-1.45-.12-.78-14.53,.61-27.68,2.12-20.08,5.37-32.04,4.25-32.22-1.06-.16-5.48,10.32-8.49,21.78-4.52,17.18-4.05,29.49-5.46,29.5-1.02,0-1.37-6.39-3.64-17.24-2.83-13.52-6.77-25.03-7.28-24.96-.36,.05,1.11,5.74,2.43,14.52,1.83,12.22,3.62,32.28,.61,32.67-1.77,.23-4.67-6.37-6.07-9.53-4.72-10.71-9.94-27.85-8.49-52.18-1.4,6.1-2.79,15.09-1.82,25.87,1.93,21.51,12.18,38.5,10.31,39.03-.72,.2-2.36-2.33-7.89-9.08-5.43-6.62-12.24-14.93-13.35-14.52-1.03,.38,2.76,8.34,7.28,15.43,5.69,8.93,11.42,14.71,10.92,14.97-.54,.29-5.94-7.3-15.78-13.16-18.33-10.91-42.97-10.4-43.08-9.98-.06,.21,6.33,.38,15.78,3.18,21.66,6.41,34.32,19.23,33.98,19.51-.16,.14-3.16-2.69-9.1-4.08-1.74-.41-7.84-1.77-13.35,.45-3.15,1.27-5.16,3.33-4.85,3.63,.38,.37,3.89-2.52,9.1-2.72,4.45-.18,10.3,1.59,11.53,4.99,.61,1.67-.1,3.23-.61,4.08,21.24,0,42.47,0,63.71,0Z"/>
  <path class="cls-37" d="M1002.11,611c3.22-4.7,7.44-10.05,12.98-15.64,6.41-6.48,12.97-11.64,18.74-15.64-4.99,1.53-11,3.75-17.3,7.01-8.5,4.4-14.61,9.16-18.74,12.94,.65-2.47,1.74-5.84,3.6-9.71,10.78-22.28,34.62-33.88,33.88-34.51-.56-.48-14.78,5.64-28.84,18.33-15.11,13.65-19.99,25.81-21.63,25.34-1.67-.48,4.5-12.79,13.7-38.82,4.33-12.26,6.25-18.82,12.26-28.58,6.31-10.24,12.56-16.57,12.26-16.71-.47-.23-16.92,14-28.84,33.97-15.26,25.57-15.35,47.61-17.3,47.45-1.72-.14-.93-17.26,.72-32.89,2.52-23.86,6.38-38.07,5.05-38.28-1.26-.2-6.51,12.26-10.09,25.88-5.37,20.41-4.81,35.03-6.49,35.05-1.21,0-1.63-7.6-4.33-20.49-3.36-16.06-8.04-29.74-8.65-29.65-.43,.06,1.32,6.82,2.88,17.25,2.17,14.52,4.3,38.35,.72,38.82-2.1,.27-5.55-7.57-7.21-11.32-5.6-12.72-11.82-33.09-10.09-62-1.67,7.25-3.31,17.93-2.16,30.73,2.29,25.55,14.47,45.74,12.26,46.37-.86,.24-2.8-2.77-9.37-10.78-6.45-7.87-14.55-17.74-15.86-17.25-1.22,.45,3.28,9.9,8.65,18.33,6.76,10.61,13.56,17.48,12.98,17.79-.64,.34-7.06-8.68-18.74-15.64-21.78-12.97-51.06-12.36-51.18-11.86-.07,.25,7.52,.45,18.74,3.77,25.74,7.62,40.78,22.85,40.37,23.18-.2,.16-3.76-3.19-10.81-4.85-2.07-.49-9.31-2.11-15.86,.54-3.74,1.51-6.13,3.96-5.77,4.31,.45,.44,4.63-2.99,10.81-3.24,5.28-.21,12.24,1.89,13.7,5.93,.72,1.99-.12,3.84-.72,4.85,25.23,0,50.46,0,75.7,0Z"/>
  <path class="cls-20" d="M930.09,611c3.82-6.18,8.83-13.22,15.4-20.56,7.61-8.52,15.39-15.31,22.24-20.56-5.93,2.01-13.05,4.93-20.53,9.22-10.09,5.78-17.33,12.04-22.24,17.02,.78-3.25,2.06-7.69,4.28-12.76,12.79-29.3,41.08-44.55,40.2-45.38-.66-.63-17.53,7.41-34.22,24.11-17.93,17.95-23.71,33.95-25.66,33.33-1.99-.63,5.34-16.83,16.25-51.06,5.14-16.12,7.41-24.76,14.54-37.58,7.49-13.47,14.9-21.79,14.54-21.98-.55-.3-20.08,18.41-34.22,44.67-18.11,33.63-18.21,62.62-20.53,62.4-2.04-.19-1.1-22.7,.86-43.26,2.99-31.38,7.57-50.07,5.99-50.35-1.5-.26-7.72,16.12-11.98,34.04-6.37,26.84-5.71,46.08-7.7,46.09-1.43,.01-1.93-9.99-5.13-26.95-3.99-21.12-9.54-39.11-10.27-39-.51,.08,1.57,8.96,3.42,22.69,2.58,19.1,5.11,50.44,.86,51.06-2.49,.36-6.59-9.95-8.55-14.89-6.65-16.73-14.02-43.51-11.98-81.55-1.98,9.53-3.93,23.58-2.57,40.42,2.72,33.61,17.17,60.16,14.54,60.98-1.02,.32-3.32-3.65-11.12-14.18-7.66-10.35-17.26-23.33-18.82-22.69-1.45,.59,3.89,13.03,10.27,24.11,8.03,13.95,16.09,22.99,15.4,23.4-.76,.45-8.38-11.41-22.24-20.56-25.84-17.06-60.58-16.25-60.73-15.6-.08,.33,8.92,.59,22.24,4.96,30.54,10.02,48.39,30.05,47.9,30.49-.23,.21-4.46-4.2-12.83-6.38-2.46-.64-11.05-2.77-18.82,.71-4.44,1.99-7.27,5.21-6.84,5.67,.54,.58,5.49-3.93,12.83-4.25,6.27-.28,14.52,2.49,16.25,7.8,.85,2.62-.14,5.04-.86,6.38h89.82Z"/>
  <path class="cls-39" d="M839.7,611c4.54-7.34,10.5-15.7,18.29-24.43,9.04-10.12,18.28-18.19,26.43-24.43-7.04,2.39-15.51,5.86-24.39,10.95-11.99,6.87-20.6,14.31-26.43,20.22,.92-3.86,2.45-9.13,5.08-15.17,15.19-34.81,48.81-52.94,47.77-53.92-.79-.74-20.83,8.81-40.66,28.65-21.31,21.32-28.18,40.34-30.49,39.6-2.36-.75,6.35-19.99,19.31-60.66,6.11-19.15,8.81-29.41,17.28-44.65,8.9-16,17.71-25.89,17.28-26.12-.66-.35-23.85,21.88-40.66,53.08-21.52,39.96-21.64,74.4-24.39,74.14-2.43-.23-1.31-26.97,1.02-51.39,3.55-37.29,9-59.5,7.11-59.82-1.78-.31-9.17,19.16-14.23,40.44-7.57,31.89-6.78,54.75-9.15,54.76-1.7,.01-2.3-11.87-6.1-32.02-4.74-25.09-11.33-46.47-12.2-46.34-.6,.09,1.86,10.65,4.07,26.96,3.06,22.69,6.07,59.93,1.02,60.66-2.96,.43-7.83-11.82-10.16-17.69-7.9-19.88-16.66-51.7-14.23-96.89-2.35,11.32-4.67,28.01-3.05,48.02,3.23,39.93,20.4,71.48,17.28,72.46-1.21,.38-3.95-4.33-13.21-16.85-9.1-12.3-20.51-27.71-22.36-26.96-1.72,.7,4.62,15.48,12.2,28.65,9.54,16.58,19.12,27.31,18.29,27.8-.9,.54-9.95-13.56-26.43-24.43-30.7-20.27-71.98-19.31-72.16-18.54-.09,.4,10.6,.71,26.43,5.9,36.29,11.91,57.49,35.7,56.92,36.23-.28,.25-5.3-4.99-15.25-7.58-2.92-.76-13.13-3.29-22.36,.84-5.28,2.36-8.64,6.19-8.13,6.74,.64,.69,6.52-4.67,15.25-5.06,7.45-.33,17.25,2.95,19.31,9.27,1.01,3.11-.16,5.99-1.02,7.58,35.57,0,71.15,0,106.72,0Z"/>
  <path class="cls-49" d="M1217.97,611.11c4.16-7.37,9.62-15.76,16.76-24.52,8.29-10.16,16.75-18.25,24.22-24.52-6.45,2.4-14.21,5.88-22.35,10.99-10.99,6.89-18.87,14.36-24.22,20.29,.84-3.88,2.24-9.17,4.66-15.22,13.92-34.93,44.73-53.12,43.77-54.11-.72-.75-19.09,8.84-37.25,28.75-19.52,21.4-25.82,40.47-27.94,39.74-2.16-.75,5.82-20.06,17.7-60.87,5.59-19.22,8.07-29.52,15.83-44.81,8.15-16.06,16.22-25.98,15.83-26.21-.6-.35-21.86,21.95-37.25,53.26-19.72,40.1-19.83,74.66-22.35,74.4-2.23-.23-1.2-27.07,.93-51.57,3.25-37.42,8.25-59.7,6.52-60.03-1.63-.31-8.41,19.22-13.04,40.58-6.94,32-6.22,54.94-8.38,54.95-1.56,.01-2.1-11.91-5.59-32.13-4.34-25.18-10.39-46.63-11.18-46.5-.55,.09,1.71,10.69,3.73,27.05,2.81,22.77,5.56,60.14,.93,60.87-2.71,.43-7.18-11.86-9.31-17.75-7.24-19.95-15.26-51.88-13.04-97.23-2.15,11.36-4.28,28.11-2.79,48.19,2.96,40.07,18.69,71.73,15.83,72.71-1.11,.38-3.62-4.35-12.11-16.91-8.34-12.34-18.79-27.81-20.49-27.05-1.58,.7,4.24,15.53,11.18,28.75,8.74,16.64,17.52,27.41,16.76,27.9-.83,.54-9.12-13.61-24.22-24.52-28.13-20.34-65.96-19.37-66.13-18.6-.08,.4,9.72,.71,24.22,5.92,33.26,11.95,52.69,35.82,52.16,36.35-.25,.25-4.85-5.01-13.97-7.61-2.68-.76-12.03-3.3-20.49,.85-4.84,2.37-7.92,6.21-7.45,6.76,.59,.69,5.98-4.69,13.97-5.07,6.82-.33,15.81,2.96,17.7,9.3,.93,3.12-.15,6.01-.93,7.61,32.6,0,65.2,0,97.79,0Z"/>
  <path class="cls-17" d="M1124.93,611.11c4.94-9.69,11.41-20.72,19.89-32.25,9.83-13.36,19.88-24,28.73-32.25-7.66,3.15-16.86,7.74-26.52,14.45-13.04,9.07-22.39,18.89-28.73,26.69,1-5.1,2.66-12.05,5.53-20.01,16.52-45.94,53.08-69.86,51.94-71.16-.86-.98-22.65,11.62-44.21,37.8-23.17,28.14-30.64,53.23-33.15,52.26-2.57-.99,6.9-26.39,21-80.06,6.64-25.28,9.57-38.82,18.79-58.93,9.67-21.12,19.25-34.17,18.79-34.47-.72-.46-25.94,28.87-44.21,70.05-23.39,52.74-23.53,98.19-26.52,97.85-2.64-.3-1.42-35.6,1.11-67.83,3.86-49.21,9.78-78.52,7.74-78.95-1.94-.4-9.98,25.28-15.47,53.37-8.24,42.08-7.38,72.25-9.95,72.27-1.85,.02-2.5-15.67-6.63-42.25-5.15-33.12-12.32-61.33-13.26-61.15-.66,.12,2.03,14.06,4.42,35.58,3.33,29.95,6.6,79.09,1.11,80.06-3.22,.57-8.51-15.6-11.05-23.35-8.59-26.24-18.11-68.23-15.47-127.87-2.55,14.95-5.08,36.97-3.32,63.38,3.51,52.7,22.18,94.34,18.79,95.62-1.32,.5-4.29-5.72-14.37-22.24-9.89-16.23-22.3-36.58-24.31-35.58-1.87,.93,5.03,20.43,13.26,37.8,10.37,21.88,20.79,36.04,19.89,36.69-.98,.71-10.82-17.9-28.73-32.25-33.38-26.74-78.27-25.48-78.47-24.46-.1,.52,11.53,.93,28.73,7.78,39.46,15.72,62.52,47.11,61.89,47.81-.3,.33-5.76-6.58-16.58-10.01-3.18-1.01-14.28-4.34-24.31,1.11-5.74,3.12-9.4,8.17-8.84,8.9,.7,.91,7.09-6.16,16.58-6.67,8.1-.43,18.76,3.9,21,12.23,1.1,4.1-.18,7.91-1.11,10.01,38.68,0,77.36,0,116.04,0Z"/>
  <path class="cls-23" d="M1268.81,610.82c2.71-3.95,6.27-8.46,10.92-13.16,5.4-5.45,10.91-9.8,15.78-13.16-4.2,1.29-9.26,3.16-14.56,5.9-7.16,3.7-12.3,7.71-15.78,10.89,.55-2.08,1.46-4.92,3.03-8.17,9.07-18.75,29.14-28.51,28.52-29.04-.47-.4-12.44,4.74-24.27,15.43-12.72,11.48-16.82,21.72-18.2,21.33-1.41-.4,3.79-10.77,11.53-32.67,3.64-10.32,5.26-15.84,10.31-24.05,5.31-8.62,10.57-13.94,10.31-14.07-.39-.19-14.24,11.78-24.27,28.59-12.84,21.52-12.92,40.07-14.56,39.93-1.45-.12-.78-14.53,.61-27.68,2.12-20.08,5.37-32.04,4.25-32.22-1.06-.16-5.48,10.32-8.49,21.78-4.52,17.18-4.05,29.49-5.46,29.5-1.02,0-1.37-6.39-3.64-17.24-2.83-13.52-6.77-25.03-7.28-24.96-.36,.05,1.11,5.74,2.43,14.52,1.83,12.22,3.62,32.28,.61,32.67-1.77,.23-4.67-6.37-6.07-9.53-4.72-10.71-9.94-27.85-8.49-52.18-1.4,6.1-2.79,15.09-1.82,25.87,1.93,21.51,12.18,38.5,10.31,39.03-.72,.2-2.36-2.33-7.89-9.08-5.43-6.62-12.24-14.93-13.35-14.52-1.03,.38,2.76,8.34,7.28,15.43,5.69,8.93,11.42,14.71,10.92,14.97-.54,.29-5.94-7.3-15.78-13.16-18.33-10.91-42.97-10.4-43.08-9.98-.06,.21,6.33,.38,15.78,3.18,21.66,6.41,34.32,19.23,33.98,19.51-.16,.14-3.16-2.69-9.1-4.08-1.74-.41-7.84-1.77-13.35,.45-3.15,1.27-5.16,3.33-4.85,3.63,.38,.37,3.89-2.52,9.1-2.72,4.45-.18,10.3,1.59,11.53,4.99,.61,1.67-.1,3.23-.61,4.08,21.24,0,42.47,0,63.71,0Z"/>
  <path class="cls-26" d="M1204.69,610.82c3.22-4.7,7.44-10.05,12.98-15.64,6.41-6.48,12.97-11.64,18.74-15.64-4.99,1.53-11,3.75-17.3,7.01-8.5,4.4-14.61,9.16-18.74,12.94,.65-2.47,1.74-5.84,3.6-9.71,10.78-22.28,34.62-33.88,33.88-34.51-.56-.48-14.78,5.64-28.84,18.33-15.11,13.65-19.99,25.81-21.63,25.34-1.67-.48,4.5-12.79,13.7-38.82,4.33-12.26,6.25-18.82,12.26-28.58,6.31-10.24,12.56-16.57,12.26-16.71-.47-.23-16.92,14-28.84,33.97-15.26,25.57-15.35,47.61-17.3,47.45-1.72-.14-.93-17.26,.72-32.89,2.52-23.86,6.38-38.07,5.05-38.28-1.26-.2-6.51,12.26-10.09,25.88-5.37,20.41-4.81,35.03-6.49,35.05-1.21,0-1.63-7.6-4.33-20.49-3.36-16.06-8.04-29.74-8.65-29.65-.43,.06,1.32,6.82,2.88,17.25,2.17,14.52,4.3,38.35,.72,38.82-2.1,.27-5.55-7.57-7.21-11.32-5.6-12.72-11.82-33.09-10.09-62-1.67,7.25-3.31,17.93-2.16,30.73,2.29,25.55,14.47,45.74,12.26,46.37-.86,.24-2.8-2.77-9.37-10.78-6.45-7.87-14.55-17.74-15.86-17.25-1.22,.45,3.28,9.9,8.65,18.33,6.76,10.61,13.56,17.48,12.98,17.79-.64,.34-7.06-8.68-18.74-15.64-21.78-12.97-51.06-12.36-51.18-11.86-.07,.25,7.52,.45,18.74,3.77,25.74,7.62,40.78,22.85,40.37,23.18-.2,.16-3.76-3.19-10.81-4.85-2.07-.49-9.31-2.11-15.86,.54-3.74,1.51-6.13,3.96-5.77,4.31,.45,.44,4.63-2.99,10.81-3.24,5.28-.21,12.24,1.89,13.7,5.93,.72,1.99-.12,3.84-.72,4.85,25.23,0,50.46,0,75.7,0Z"/>
  <path class="cls-12" d="M1132.68,610.82c3.82-6.18,8.83-13.22,15.4-20.56,7.61-8.52,15.39-15.31,22.24-20.56-5.93,2.01-13.05,4.93-20.53,9.22-10.09,5.78-17.33,12.04-22.24,17.02,.78-3.25,2.06-7.69,4.28-12.76,12.79-29.3,41.08-44.55,40.2-45.38-.66-.63-17.53,7.41-34.22,24.11-17.93,17.95-23.71,33.95-25.66,33.33-1.99-.63,5.34-16.83,16.25-51.06,5.14-16.12,7.41-24.76,14.54-37.58,7.49-13.47,14.9-21.79,14.54-21.98-.55-.3-20.08,18.41-34.22,44.67-18.11,33.63-18.21,62.62-20.53,62.4-2.04-.19-1.1-22.7,.86-43.26,2.99-31.38,7.57-50.07,5.99-50.35-1.5-.26-7.72,16.12-11.98,34.04-6.37,26.84-5.71,46.08-7.7,46.09-1.43,.01-1.93-9.99-5.13-26.95-3.99-21.12-9.54-39.11-10.27-39-.51,.08,1.57,8.96,3.42,22.69,2.58,19.1,5.11,50.44,.86,51.06-2.49,.36-6.59-9.95-8.55-14.89-6.65-16.73-14.02-43.51-11.98-81.55-1.98,9.53-3.93,23.58-2.57,40.42,2.72,33.61,17.17,60.16,14.54,60.98-1.02,.32-3.32-3.65-11.12-14.18-7.66-10.35-17.26-23.33-18.82-22.69-1.45,.59,3.89,13.03,10.27,24.11,8.03,13.95,16.09,22.99,15.4,23.4-.76,.45-8.38-11.41-22.24-20.56-25.84-17.06-60.58-16.25-60.73-15.6-.08,.33,8.92,.59,22.24,4.96,30.54,10.02,48.39,30.05,47.9,30.49-.23,.21-4.46-4.2-12.83-6.38-2.46-.64-11.05-2.77-18.82,.71-4.44,1.99-7.27,5.21-6.84,5.67,.54,.58,5.49-3.93,12.83-4.25,6.27-.28,14.52,2.49,16.25,7.8,.85,2.62-.14,5.04-.86,6.38,29.94,0,59.88,0,89.82,0Z"/>
  <path class="cls-46" d="M1362.18,610.93c4.16-7.37,9.62-15.76,16.76-24.52,8.29-10.16,16.75-18.25,24.22-24.52-6.45,2.4-14.21,5.88-22.35,10.99-10.99,6.89-18.87,14.36-24.22,20.29,.84-3.88,2.24-9.17,4.66-15.22,13.92-34.93,44.73-53.12,43.77-54.11-.72-.75-19.09,8.84-37.25,28.75-19.52,21.4-25.82,40.47-27.94,39.74-2.16-.75,5.82-20.06,17.7-60.87,5.59-19.22,8.07-29.52,15.83-44.81,8.15-16.06,16.22-25.98,15.83-26.21-.6-.35-21.86,21.95-37.25,53.26-19.72,40.1-19.83,74.66-22.35,74.4-2.23-.23-1.2-27.07,.93-51.57,3.25-37.42,8.25-59.7,6.52-60.03-1.63-.31-8.41,19.22-13.04,40.58-6.94,32-6.22,54.94-8.38,54.95-1.56,.01-2.1-11.91-5.59-32.13-4.34-25.18-10.39-46.63-11.18-46.5-.55,.09,1.71,10.69,3.73,27.05,2.81,22.77,5.56,60.14,.93,60.87-2.71,.43-7.18-11.86-9.31-17.75-7.24-19.95-15.26-51.88-13.04-97.23-2.15,11.36-4.28,28.11-2.79,48.19,2.96,40.07,18.69,71.73,15.83,72.71-1.11,.38-3.62-4.35-12.11-16.91-8.34-12.34-18.79-27.81-20.49-27.05-1.58,.7,4.24,15.53,11.18,28.75,8.74,16.64,17.52,27.41,16.76,27.9-.83,.54-9.12-13.61-24.22-24.52-28.13-20.34-65.96-19.37-66.13-18.6-.08,.4,9.72,.71,24.22,5.92,33.26,11.95,52.69,35.82,52.16,36.35-.25,.25-4.85-5.01-13.97-7.61-2.68-.76-12.03-3.3-20.49,.85-4.84,2.37-7.92,6.21-7.45,6.76,.59,.69,5.98-4.69,13.97-5.07,6.82-.33,15.81,2.96,17.7,9.3,.93,3.12-.15,6.01-.93,7.61,32.6,0,65.2,0,97.79,0Z"/>
  <path class="cls-5" d="M1413.02,610.65c2.71-3.95,6.27-8.46,10.92-13.16,5.4-5.45,10.91-9.8,15.78-13.16-4.2,1.29-9.26,3.16-14.56,5.9-7.16,3.7-12.3,7.71-15.78,10.89,.55-2.08,1.46-4.92,3.03-8.17,9.07-18.75,29.14-28.51,28.52-29.04-.47-.4-12.44,4.74-24.27,15.43-12.72,11.48-16.82,21.72-18.2,21.33-1.41-.4,3.79-10.77,11.53-32.67,3.64-10.32,5.26-15.84,10.31-24.05,5.31-8.62,10.57-13.94,10.31-14.07-.39-.19-14.24,11.78-24.27,28.59-12.84,21.52-12.92,40.07-14.56,39.93-1.45-.12-.78-14.53,.61-27.68,2.12-20.08,5.37-32.04,4.25-32.22-1.06-.16-5.48,10.32-8.49,21.78-4.52,17.18-4.05,29.49-5.46,29.5-1.02,0-1.37-6.39-3.64-17.24-2.83-13.52-6.77-25.03-7.28-24.96-.36,.05,1.11,5.74,2.43,14.52,1.83,12.22,3.62,32.28,.61,32.67-1.77,.23-4.67-6.37-6.07-9.53-4.72-10.71-9.94-27.85-8.49-52.18-1.4,6.1-2.79,15.09-1.82,25.87,1.93,21.51,12.18,38.5,10.31,39.03-.72,.2-2.36-2.33-7.89-9.08-5.43-6.62-12.24-14.93-13.35-14.52-1.03,.38,2.76,8.34,7.28,15.43,5.69,8.93,11.42,14.71,10.92,14.97-.54,.29-5.94-7.3-15.78-13.16-18.33-10.91-42.97-10.4-43.08-9.98-.06,.21,6.33,.38,15.78,3.18,21.66,6.41,34.32,19.23,33.98,19.51-.16,.14-3.16-2.69-9.1-4.08-1.74-.41-7.84-1.77-13.35,.45-3.15,1.27-5.16,3.33-4.85,3.63,.38,.37,3.89-2.52,9.1-2.72,4.45-.18,10.3,1.59,11.53,4.99,.61,1.67-.1,3.23-.61,4.08,21.24,0,42.47,0,63.71,0Z"/>
  <path class="cls-35" d="M1348.91,610.65c3.22-4.7,7.44-10.05,12.98-15.64,6.41-6.48,12.97-11.64,18.74-15.64-4.99,1.53-11,3.75-17.3,7.01-8.5,4.4-14.61,9.16-18.74,12.94,.65-2.47,1.74-5.84,3.6-9.71,10.78-22.28,34.62-33.88,33.88-34.51-.56-.48-14.78,5.64-28.84,18.33-15.11,13.65-19.99,25.81-21.63,25.34-1.67-.48,4.5-12.79,13.7-38.82,4.33-12.26,6.25-18.82,12.26-28.58,6.31-10.24,12.56-16.57,12.26-16.71-.47-.23-16.92,14-28.84,33.97-15.26,25.57-15.35,47.61-17.3,47.45-1.72-.14-.93-17.26,.72-32.89,2.52-23.86,6.38-38.07,5.05-38.28-1.26-.2-6.51,12.26-10.09,25.88-5.37,20.41-4.81,35.03-6.49,35.05-1.21,0-1.63-7.6-4.33-20.49-3.36-16.06-8.04-29.74-8.65-29.65-.43,.06,1.32,6.82,2.88,17.25,2.17,14.52,4.3,38.35,.72,38.82-2.1,.27-5.55-7.57-7.21-11.32-5.6-12.72-11.82-33.09-10.09-62-1.67,7.25-3.31,17.93-2.16,30.73,2.29,25.55,14.47,45.74,12.26,46.37-.86,.24-2.8-2.77-9.37-10.78-6.45-7.87-14.55-17.74-15.86-17.25-1.22,.45,3.28,9.9,8.65,18.33,6.76,10.61,13.56,17.48,12.98,17.79-.64,.34-7.06-8.68-18.74-15.64-21.78-12.97-51.06-12.36-51.18-11.86-.07,.25,7.52,.45,18.74,3.77,25.74,7.62,40.78,22.85,40.37,23.18-.2,.16-3.76-3.19-10.81-4.85-2.07-.49-9.31-2.11-15.86,.54-3.74,1.51-6.13,3.96-5.77,4.31,.45,.44,4.63-2.99,10.81-3.24,5.28-.21,12.24,1.89,13.7,5.93,.72,1.99-.12,3.84-.72,4.85,25.23,0,50.46,0,75.7,0Z"/>
  <path class="cls-28" d="M1989.47,609.78c-4.16-7.37-9.62-15.76-16.76-24.52-8.29-10.16-16.75-18.25-24.22-24.52,6.45,2.4,14.21,5.88,22.35,10.99,10.99,6.89,18.87,14.36,24.22,20.29-.84-3.88-2.24-9.17-4.66-15.22-13.92-34.93-44.73-53.12-43.77-54.11,.72-.75,19.09,8.84,37.25,28.75,19.52,21.4,25.82,40.47,27.94,39.74,2.16-.75-5.82-20.06-17.7-60.87-5.59-19.22-8.07-29.52-15.83-44.81-8.15-16.06-16.22-25.98-15.83-26.21,.6-.35,21.86,21.95,37.25,53.26,19.72,40.1,19.83,74.66,22.35,74.4,2.23-.23,1.2-27.07-.93-51.57-3.25-37.42-8.25-59.7-6.52-60.03,1.63-.31,8.41,19.22,13.04,40.58,6.94,32,6.22,54.94,8.38,54.95,1.56,.01,2.1-11.91,5.59-32.13,4.34-25.18,10.39-46.63,11.18-46.5,.55,.09-1.71,10.69-3.73,27.05-2.81,22.77-5.56,60.14-.93,60.87,2.71,.43,7.18-11.86,9.31-17.75,7.24-19.95,15.26-51.88,13.04-97.23,2.15,11.36,4.28,28.11,2.79,48.19-2.96,40.07-18.69,71.73-15.83,72.71,1.11,.38,3.62-4.35,12.11-16.91,8.34-12.34,18.79-27.81,20.49-27.05,1.58,.7-4.24,15.53-11.18,28.75-8.74,16.64-17.52,27.41-16.76,27.9,.83,.54,9.12-13.61,24.22-24.52,28.13-20.34,65.96-19.37,66.13-18.6,.08,.4-9.72,.71-24.22,5.92-33.26,11.95-52.69,35.82-52.16,36.35,.25,.25,4.85-5.01,13.97-7.61,2.68-.76,12.03-3.3,20.49,.85,4.84,2.37,7.92,6.21,7.45,6.76-.59,.69-5.98-4.69-13.97-5.07-6.82-.33-15.81,2.96-17.7,9.3-.93,3.12,.15,6.01,.93,7.61h-97.79Z"/>
  <path class="cls-44" d="M2651.24,609.95c-6.13-11.5-14.18-24.59-24.71-38.26-12.22-15.85-24.7-28.48-35.7-38.26,9.51,3.74,20.95,9.18,32.95,17.15,16.2,10.76,27.82,22.41,35.7,31.66-1.25-6.05-3.31-14.3-6.86-23.75-20.52-54.51-65.94-82.89-64.53-84.43,1.07-1.17,28.14,13.79,54.92,44.85,28.78,33.39,38.06,63.16,41.19,62,3.19-1.17-8.57-31.31-26.09-94.99-8.25-29.99-11.9-46.06-23.34-69.92-12.02-25.06-23.92-40.54-23.34-40.9,.89-.55,32.22,34.25,54.92,83.11,29.06,62.57,29.24,116.49,32.95,116.09,3.28-.35,1.77-42.24-1.37-80.47-4.8-58.39-12.16-93.16-9.61-93.67,2.41-.48,12.39,30,19.22,63.32,10.23,49.93,9.16,85.72,12.36,85.75,2.3,.02,3.1-18.59,8.24-50.13,6.4-39.29,15.31-72.77,16.48-72.56,.82,.15-2.52,16.68-5.49,42.22-4.14,35.53-8.2,93.84-1.37,94.99,4,.67,10.58-18.51,13.73-27.7,10.67-31.13,22.5-80.96,19.22-151.71,3.17,17.73,6.31,43.86,4.12,75.2-4.37,62.53-27.56,111.93-23.34,113.45,1.64,.59,5.33-6.78,17.85-26.38,12.29-19.25,27.71-43.4,30.21-42.22,2.32,1.1-6.24,24.23-16.48,44.85-12.88,25.96-25.83,42.76-24.71,43.53,1.22,.84,13.44-21.23,35.7-38.26,41.47-31.73,97.24-30.23,97.48-29.02,.13,.62-14.32,1.1-35.7,9.23-49.02,18.65-77.67,55.9-76.89,56.73,.37,.4,7.15-7.81,20.59-11.87,3.95-1.19,17.74-5.15,30.21,1.32,7.13,3.7,11.67,9.69,10.98,10.55-.87,1.08-8.81-7.31-20.59-7.92-10.06-.51-23.3,4.62-26.09,14.51-1.37,4.87,.22,9.39,1.37,11.87h-144.16Z"/>
  <path class="cls-22" d="M2497.52,609.5c-6.59-8.98-15.23-19.21-26.55-29.89-13.12-12.39-26.53-22.25-38.34-29.89,10.22,2.92,22.5,7.17,35.4,13.4,17.4,8.41,29.89,17.51,38.34,24.74-1.34-4.73-3.55-11.18-7.37-18.56-22.04-42.59-70.83-64.77-69.32-65.97,1.14-.91,30.23,10.78,58.99,35.05,30.92,26.09,40.88,49.35,44.24,48.45,3.42-.92-9.21-24.46-28.02-74.22-8.86-23.43-12.78-35.99-25.07-54.63-12.91-19.58-25.69-31.68-25.07-31.96,.96-.43,34.61,26.77,58.99,64.94,31.22,48.89,31.4,91.03,35.4,90.71,3.52-.28,1.9-33-1.47-62.88-5.15-45.62-13.06-72.79-10.32-73.19,2.59-.37,13.31,23.44,20.65,49.48,10.99,39.02,9.84,66.98,13.27,67,2.47,.02,3.33-14.53,8.85-39.17,6.87-30.7,16.44-56.86,17.7-56.7,.88,.11-2.71,13.03-5.9,32.99-4.44,27.76-8.8,73.33-1.47,74.22,4.3,.53,11.36-14.47,14.75-21.65,11.46-24.32,24.17-63.26,20.65-118.55,3.41,13.86,6.77,34.28,4.42,58.76-4.69,48.86-29.6,87.46-25.07,88.65,1.76,.46,5.73-5.3,19.17-20.62,13.2-15.04,29.76-33.91,32.45-32.99,2.5,.86-6.71,18.94-17.7,35.05-13.84,20.29-27.75,33.42-26.55,34.02,1.31,.66,14.44-16.59,38.34-29.89,44.55-24.79,104.45-23.62,104.71-22.68,.13,.48-15.39,.86-38.34,7.22-52.66,14.57-83.43,43.68-82.59,44.33,.4,.31,7.68-6.1,22.12-9.28,4.24-.93,19.05-4.02,32.45,1.03,7.66,2.89,12.54,7.57,11.8,8.25-.93,.84-9.46-5.71-22.12-6.19-10.81-.4-25.03,3.61-28.02,11.34-1.47,3.8,.24,7.33,1.47,9.28-51.62,0-103.24,0-154.85,0Z"/>
  <path class="cls-34" d="M2367.57,608.73c-5.54-7.56-12.82-16.17-22.34-25.16-11.04-10.42-22.33-18.73-32.27-25.16,8.6,2.46,18.94,6.04,29.79,11.28,14.64,7.08,25.15,14.74,32.27,20.82-1.13-3.98-2.99-9.41-6.21-15.62-18.55-35.85-59.61-54.51-58.34-55.53,.96-.77,25.44,9.07,49.65,29.5,26.02,21.96,34.41,42.3,37.24,41.54,2.88-.77-7.75-21.36-23.58-63.23-7.46-19.72-10.75-30.29-21.1-45.98-10.87-16.48-21.62-26.66-21.1-26.9,.8-.36,29.13,22.53,49.65,54.66,26.28,41.15,26.43,77.38,29.79,77.12,2.97-.23,1.6-27.78-1.24-52.92-4.34-38.4-10.99-61.27-8.69-61.6,2.18-.31,11.2,19.73,17.38,41.64,9.25,32.84,8.29,56.37,11.17,56.39,2.08,.01,2.8-12.23,7.45-32.97,5.78-25.84,13.84-47.85,14.89-47.72,.74,.1-2.28,10.97-4.96,27.76-3.74,23.37-7.41,61.71-1.24,62.47,3.62,.44,9.56-12.17,12.41-18.22,9.65-20.47,20.34-53.24,17.38-99.77,2.87,11.66,5.7,28.85,3.72,49.45-3.95,41.12-24.91,73.61-21.1,74.61,1.48,.39,4.82-4.46,16.14-17.35,11.11-12.66,25.05-28.54,27.31-27.76,2.1,.72-5.65,15.94-14.89,29.5-11.65,17.07-23.35,28.12-22.34,28.63,1.1,.55,12.15-13.96,32.27-25.16,37.49-20.87,87.91-19.88,88.13-19.09,.11,.41-12.95,.73-32.27,6.07-44.32,12.26-70.21,36.76-69.51,37.31,.34,.26,6.47-5.14,18.62-7.81,3.57-.78,16.04-3.39,27.31,.87,6.45,2.43,10.55,6.37,9.93,6.94-.78,.71-7.96-4.81-18.62-5.21-9.09-.34-21.07,3.04-23.58,9.54-1.24,3.2,.2,6.17,1.24,7.81-43.44,0-86.89-.77-130.33-.77Z"/>
  <path class="cls-7" d="M2263.07,608.73c-4.67-5.75-10.8-12.29-18.83-19.13-9.31-7.93-18.82-14.24-27.2-19.13,7.25,1.87,15.96,4.59,25.11,8.58,12.34,5.38,21.2,11.21,27.2,15.83-.95-3.02-2.52-7.15-5.23-11.87-15.63-27.26-50.24-41.45-49.16-42.22,.81-.58,21.44,6.9,41.84,22.43,21.93,16.69,29,31.58,31.38,31,2.43-.59-6.53-15.65-19.88-47.5-6.28-15-9.06-23.03-17.78-34.96-9.16-12.53-18.22-20.27-17.78-20.45,.68-.28,24.55,17.13,41.84,41.56,22.14,31.29,22.27,58.25,25.11,58.05,2.5-.18,1.35-21.12-1.05-40.24-3.66-29.2-9.26-46.58-7.32-46.84,1.83-.24,9.44,15,14.64,31.66,7.79,24.97,6.98,42.86,9.41,42.88,1.75,.01,2.36-9.3,6.28-25.07,4.87-19.65,11.66-36.39,12.55-36.28,.62,.07-1.92,8.34-4.18,21.11-3.15,17.77-6.24,46.92-1.05,47.5,3.05,.34,8.06-9.26,10.46-13.85,8.13-15.57,17.14-40.48,14.64-75.86,2.42,8.87,4.8,21.93,3.14,37.6-3.33,31.27-21,55.97-17.78,56.73,1.25,.3,4.06-3.39,13.6-13.19,9.37-9.63,21.11-21.7,23.01-21.11,1.77,.55-4.76,12.12-12.55,22.43-9.81,12.98-19.68,21.38-18.83,21.77,.93,.42,10.24-10.62,27.2-19.13,31.6-15.87,74.08-15.12,74.27-14.51,.1,.31-10.91,.55-27.2,4.62-37.35,9.32-59.17,27.95-58.58,28.37,.28,.2,5.45-3.91,15.69-5.94,3.01-.6,13.52-2.58,23.01,.66,5.43,1.85,8.89,4.85,8.37,5.28-.66,.54-6.71-3.66-15.69-3.96-7.66-.26-17.76,2.31-19.88,7.26-1.04,2.43,.17,4.69,1.05,5.94-36.61,0-73.22,0-109.84,0Z"/>
  <path class="cls-4" d="M2082.51,609.78c-4.94-9.69-11.41-20.72-19.89-32.25-9.83-13.36-19.88-24-28.73-32.25,7.66,3.15,16.86,7.74,26.52,14.45,13.04,9.07,22.39,18.89,28.73,26.69-1-5.1-2.66-12.05-5.53-20.01-16.52-45.94-53.08-69.86-51.94-71.16,.86-.98,22.65,11.62,44.21,37.8,23.17,28.14,30.64,53.23,33.15,52.26,2.57-.99-6.9-26.39-21-80.06-6.64-25.28-9.57-38.82-18.79-58.93-9.67-21.12-19.25-34.17-18.79-34.47,.72-.46,25.94,28.87,44.21,70.05,23.39,52.74,23.53,98.19,26.52,97.85,2.64-.3,1.42-35.6-1.11-67.83-3.86-49.21-9.78-78.52-7.74-78.95,1.94-.4,9.98,25.28,15.47,53.37,8.24,42.08,7.38,72.25,9.95,72.27,1.85,.02,2.5-15.67,6.63-42.25,5.15-33.12,12.32-61.33,13.26-61.15,.66,.12-2.03,14.06-4.42,35.58-3.33,29.95-6.6,79.09-1.11,80.06,3.22,.57,8.51-15.6,11.05-23.35,8.59-26.24,18.11-68.23,15.47-127.87,2.55,14.95,5.08,36.97,3.32,63.38-3.51,52.7-22.18,94.34-18.79,95.62,1.32,.5,4.29-5.72,14.37-22.24,9.89-16.23,22.3-36.58,24.31-35.58,1.87,.93-5.03,20.43-13.26,37.8-10.37,21.88-20.79,36.04-19.89,36.69,.98,.71,10.82-17.9,28.73-32.25,33.38-26.74,78.27-25.48,78.47-24.46,.1,.52-11.53,.93-28.73,7.78-39.46,15.72-62.52,47.11-61.89,47.81,.3,.33,5.76-6.58,16.58-10.01,3.18-1.01,14.28-4.34,24.31,1.11,5.74,3.12,9.4,8.17,8.84,8.9-.7,.91-7.09-6.16-16.58-6.67-8.1-.43-18.76,3.9-21,12.23-1.1,4.1,.18,7.91,1.11,10.01h-116.04Z"/>
  <path class="cls-27" d="M2199.29,609.02c-5.87-11.51-13.56-24.62-23.64-38.31-11.68-15.87-23.62-28.52-34.14-38.31,9.1,3.74,20.04,9.19,31.51,17.17,15.49,10.77,26.61,22.44,34.14,31.71-1.19-6.06-3.16-14.32-6.57-23.78-19.63-54.59-63.06-83.01-61.72-84.55,1.02-1.17,26.91,13.81,52.52,44.92,27.53,33.43,36.4,63.25,39.39,62.09,3.05-1.18-8.2-31.35-24.95-95.12-7.89-30.03-11.38-46.12-22.32-70.02-11.49-25.09-22.87-40.6-22.32-40.96,.85-.55,30.82,34.3,52.52,83.23,27.8,62.66,27.96,116.66,31.51,116.26,3.14-.35,1.69-42.3-1.31-80.59-4.59-58.47-11.62-93.29-9.19-93.8,2.3-.48,11.85,30.04,18.38,63.41,9.78,50,8.76,85.84,11.82,85.87,2.2,.02,2.97-18.62,7.88-50.2,6.12-39.35,14.64-72.87,15.76-72.66,.78,.15-2.41,16.7-5.25,42.28-3.96,35.58-7.84,93.97-1.31,95.12,3.83,.67,10.12-18.54,13.13-27.74,10.21-31.17,21.52-81.07,18.38-151.93,3.03,17.76,6.03,43.93,3.94,75.3-4.17,62.62-26.36,112.09-22.32,113.62,1.57,.59,5.1-6.79,17.07-26.42,11.76-19.28,26.5-43.46,28.89-42.28,2.22,1.1-5.97,24.27-15.76,44.92-12.32,26-24.71,42.83-23.64,43.6,1.16,.84,12.86-21.26,34.14-38.31,39.66-31.78,93-30.27,93.23-29.06,.12,.62-13.7,1.11-34.14,9.25-46.89,18.67-74.28,55.98-73.53,56.81,.36,.4,6.84-7.82,19.7-11.89,3.78-1.19,16.97-5.16,28.89,1.32,6.82,3.71,11.17,9.71,10.5,10.57-.83,1.08-8.43-7.32-19.7-7.93-9.62-.52-22.29,4.63-24.95,14.53-1.31,4.88,.21,9.4,1.31,11.89-45.96,0-91.92,0-137.88,0Z"/>
  <path class="cls-1" d="M2325.79,609.02c-6.04-9.01-13.96-19.28-24.33-30-12.02-12.43-24.31-22.33-35.14-30,9.36,2.93,20.62,7.2,32.43,13.45,15.94,8.44,27.39,17.57,35.14,24.83-1.23-4.74-3.26-11.21-6.76-18.62-20.2-42.74-64.91-64.99-63.52-66.2,1.05-.91,27.7,10.81,54.06,35.17,28.33,26.18,37.46,49.52,40.54,48.62,3.14-.92-8.44-24.55-25.68-74.48-8.12-23.52-11.71-36.11-22.97-54.82-11.83-19.65-23.54-31.79-22.97-32.07,.88-.43,31.72,26.86,54.06,65.17,28.61,49.06,28.78,91.34,32.43,91.03,3.23-.28,1.74-33.12-1.35-63.1-4.72-45.78-11.96-73.05-9.46-73.44,2.37-.38,12.2,23.52,18.92,49.65,10.07,39.15,9.02,67.98,12.16,68,2.27,.02,3.05-14.58,8.11-39.31,6.3-30.81,15.07-57.06,16.22-56.89,.8,.11-2.48,13.08-5.41,33.1-4.07,27.86-8.07,73.58-1.35,74.48,3.94,.53,10.41-14.52,13.51-21.72,10.51-24.41,22.15-63.48,18.92-118.96,3.12,13.9,6.21,34.39,4.05,58.96-4.3,49.03-27.13,87.76-22.97,88.96,1.61,.47,5.25-5.32,17.57-20.69,12.1-15.1,27.27-34.03,29.73-33.1,2.29,.86-6.15,19-16.22,35.17-12.68,20.36-25.43,33.53-24.33,34.14,1.2,.66,13.23-16.65,35.14-30,40.82-24.88,95.71-23.7,95.95-22.76,.12,.49-14.1,.87-35.14,7.24-48.25,14.62-76.45,43.83-75.68,44.48,.37,.31,7.04-6.13,20.27-9.31,3.89-.94,17.46-4.04,29.73,1.03,7.02,2.9,11.49,7.6,10.81,8.28-.85,.84-8.67-5.73-20.27-6.21-9.9-.4-22.94,3.63-25.68,11.38-1.35,3.82,.22,7.36,1.35,9.31-47.3,0-94.6-.77-141.9-.77Z"/>
  <path class="cls-38" d="M2460.8,609.78c-7.16-11.86-16.56-25.36-28.86-39.45-14.27-16.35-28.85-29.37-41.69-39.45,11.11,3.86,24.47,9.46,38.49,17.69,18.92,11.09,32.5,23.11,41.69,32.65-1.45-6.24-3.87-14.75-8.02-24.49-23.97-56.21-77.02-86.24-75.37-87.84,1.24-1.2,32.87,14.99,64.14,47.02,33.62,34.43,44.45,65.13,48.11,63.94,3.72-1.21-10.01-32.28-30.47-97.95-9.63-30.93-13.89-47.49-27.26-72.1-14.04-25.84-27.94-41.8-27.26-42.17,1.04-.57,37.64,35.32,64.14,85.71,33.95,64.52,34.15,120.13,38.49,119.72,3.83-.37,2.07-43.56-1.6-82.99-5.6-60.21-14.2-96.07-11.23-96.59,2.81-.49,14.48,30.93,22.45,65.3,11.95,51.49,10.7,88.4,14.43,88.43,2.69,.02,3.62-19.17,9.62-51.7,7.47-40.52,17.88-75.04,19.24-74.82,.95,.15-2.94,17.2-6.41,43.53-4.83,36.64-9.57,96.77-1.6,97.95,4.67,.69,12.36-19.09,16.04-28.57,12.47-32.1,26.28-83.48,22.45-156.45,3.71,18.29,7.37,45.23,4.81,77.54-5.1,64.48-32.19,115.42-27.26,117,1.91,.61,6.23-6.99,20.85-27.21,14.36-19.86,32.36-44.75,35.28-43.53,2.72,1.13-7.29,24.99-19.24,46.25-15.04,26.77-30.17,44.1-28.86,44.89,1.42,.86,15.7-21.89,41.69-39.45,48.44-32.72,113.57-31.18,113.86-29.93,.15,.64-16.73,1.14-41.69,9.52-57.26,19.23-90.71,57.64-89.8,58.5,.43,.41,8.36-8.06,24.05-12.24,4.61-1.23,20.72-5.31,35.28,1.36,8.33,3.82,13.64,10,12.83,10.88-1.01,1.11-10.29-7.54-24.05-8.16-11.75-.53-27.22,4.77-30.47,14.96-1.6,5.02,.26,9.68,1.6,12.24h-168.38Z"/>
  <path class="cls-2" d="M2628.68,609.78c-8.51-14.09-19.68-30.13-34.3-46.88-16.95-19.42-34.27-34.9-49.54-46.88,13.2,4.58,29.07,11.25,45.73,21.01,22.48,13.18,38.61,27.46,49.54,38.79-1.73-7.41-4.59-17.52-9.53-29.1-28.48-66.79-91.51-101.56-89.55-103.45,1.48-1.43,39.05,16.9,76.21,54.96,39.94,40.91,52.82,77.38,57.16,75.97,4.42-1.44-11.9-38.36-36.2-116.38-11.45-36.75-16.51-56.43-32.39-85.67-16.68-30.7-33.19-49.67-32.39-50.11,1.23-.67,44.72,41.97,76.21,101.83,40.33,76.67,40.57,142.74,45.73,142.25,4.55-.43,2.45-51.75-1.91-98.6-6.66-71.54-16.87-114.15-13.34-114.77,3.34-.59,17.2,36.76,26.67,77.59,14.2,61.18,12.72,105.03,17.15,105.07,3.19,.03,4.31-22.78,11.43-61.42,8.88-48.14,21.25-89.16,22.86-88.9,1.13,.18-3.5,20.44-7.62,51.73-5.74,43.53-11.37,114.98-1.91,116.38,5.55,.82,14.68-22.68,19.05-33.94,14.81-38.14,31.23-99.19,26.67-185.89,4.4,21.73,8.75,53.75,5.72,92.14-6.06,76.61-38.25,137.14-32.39,139.01,2.27,.73,7.4-8.31,24.77-32.33,17.06-23.59,38.45-53.17,41.92-51.73,3.23,1.35-8.67,29.69-22.86,54.96-17.88,31.81-35.85,52.4-34.3,53.34,1.69,1.03,18.66-26.01,49.54-46.88,57.55-38.88,134.94-37.04,135.28-35.56,.17,.76-19.88,1.35-49.54,11.31-68.03,22.85-107.78,68.49-106.7,69.51,.52,.48,9.93-9.57,28.58-14.55,5.48-1.46,24.62-6.31,41.92,1.62,9.89,4.53,16.2,11.88,15.24,12.93-1.2,1.32-12.23-8.96-28.58-9.7-13.96-.63-32.34,5.67-36.2,17.78-1.9,5.97,.31,11.5,1.91,14.55h-200.06Z"/>
  <path class="cls-30" d="M2827.28,610.5c-7.92-18.03-18.32-38.55-31.93-59.99-15.78-24.86-31.91-44.66-46.12-59.99,12.29,5.86,27.06,14.39,42.57,26.89,20.93,16.87,35.94,35.14,46.12,49.65-1.61-9.48-4.28-22.43-8.87-37.24-26.51-85.47-85.19-129.97-83.37-132.39,1.38-1.83,36.36,21.62,70.95,70.33,37.18,52.35,49.17,99.03,53.21,97.23,4.12-1.84-11.08-49.09-33.7-148.94-10.66-47.03-15.37-72.22-30.15-109.64-15.53-39.29-30.9-64.34-30.15-64.9,1.15-.86,41.63,54.48,70.95,131.09,37.55,98.11,37.77,182.67,42.57,182.04,4.24-.56,2.29-66.23-1.77-126.19-6.2-91.56-15.7-146.08-12.42-146.87,3.11-.75,16.01,47.04,24.83,99.29,13.22,78.3,11.84,134.42,15.96,134.46,2.97,.03,4.01-29.15,10.64-78.61,8.27-61.61,19.78-114.1,21.29-113.78,1.05,.23-3.25,26.15-7.1,66.2-5.34,55.71-10.59,147.14-1.77,148.94,5.17,1.05,13.67-29.03,17.74-43.44,13.79-48.81,29.07-126.94,24.83-237.89,4.1,27.8,8.15,68.78,5.32,117.91-5.64,98.05-35.61,175.51-30.15,177.9,2.12,.93,6.89-10.63,23.06-41.37,15.88-30.19,35.79-68.05,39.02-66.2,3,1.72-8.07,38-21.29,70.33-16.64,40.71-33.37,67.06-31.93,68.27,1.57,1.32,17.37-33.29,46.12-59.99,53.58-49.76,125.62-47.4,125.94-45.51,.16,.97-18.51,1.73-46.12,14.48-63.34,29.24-100.34,87.65-99.33,88.95,.48,.62,9.24-12.25,26.61-18.62,5.1-1.87,22.92-8.08,39.02,2.07,9.21,5.8,15.08,15.2,14.19,16.55-1.12,1.69-11.38-11.47-26.61-12.41-13-.81-30.11,7.25-33.7,22.76-1.77,7.63,.28,14.72,1.77,18.62-62.08,0-124.17,0-186.25,0Z"/>
  <path class="cls-24" d="M1938.63,609.5c-2.71-3.95-6.27-8.46-10.92-13.16-5.4-5.45-10.91-9.8-15.78-13.16,4.2,1.29,9.26,3.16,14.56,5.9,7.16,3.7,12.3,7.71,15.78,10.89-.55-2.08-1.46-4.92-3.03-8.17-9.07-18.75-29.14-28.51-28.52-29.04,.47-.4,12.44,4.74,24.27,15.43,12.72,11.48,16.82,21.72,18.2,21.33,1.41-.4-3.79-10.77-11.53-32.67-3.64-10.32-5.26-15.84-10.31-24.05-5.31-8.62-10.57-13.94-10.31-14.07,.39-.19,14.24,11.78,24.27,28.59,12.84,21.52,12.92,40.07,14.56,39.93,1.45-.12,.78-14.53-.61-27.68-2.12-20.08-5.37-32.04-4.25-32.22,1.06-.16,5.48,10.32,8.49,21.78,4.52,17.18,4.05,29.49,5.46,29.5,1.02,0,1.37-6.39,3.64-17.24,2.83-13.52,6.77-25.03,7.28-24.96,.36,.05-1.11,5.74-2.43,14.52-1.83,12.22-3.62,32.28-.61,32.67,1.77,.23,4.67-6.37,6.07-9.53,4.72-10.71,9.94-27.85,8.49-52.18,1.4,6.1,2.79,15.09,1.82,25.87-1.93,21.51-12.18,38.5-10.31,39.03,.72,.2,2.36-2.33,7.89-9.08,5.43-6.62,12.24-14.93,13.35-14.52,1.03,.38-2.76,8.34-7.28,15.43-5.69,8.93-11.42,14.71-10.92,14.97,.54,.29,5.94-7.3,15.78-13.16,18.33-10.91,42.97-10.4,43.08-9.98,.06,.21-6.33,.38-15.78,3.18-21.66,6.41-34.32,19.23-33.98,19.51,.16,.14,3.16-2.69,9.1-4.08,1.74-.41,7.84-1.77,13.35,.45,3.15,1.27,5.16,3.33,4.85,3.63-.38,.37-3.89-2.52-9.1-2.72-4.45-.18-10.3,1.59-11.53,4.99-.61,1.67,.1,3.23,.61,4.08-21.24,0-42.47,0-63.71,0Z"/>
  <path class="cls-40" d="M2002.74,609.5c-3.22-4.7-7.44-10.05-12.98-15.64-6.41-6.48-12.97-11.64-18.74-15.64,4.99,1.53,11,3.75,17.3,7.01,8.5,4.4,14.61,9.16,18.74,12.94-.65-2.47-1.74-5.84-3.6-9.71-10.78-22.28-34.62-33.88-33.88-34.51,.56-.48,14.78,5.64,28.84,18.33,15.11,13.65,19.99,25.81,21.63,25.34,1.67-.48-4.5-12.79-13.7-38.82-4.33-12.26-6.25-18.82-12.26-28.58-6.31-10.24-12.56-16.57-12.26-16.71,.47-.23,16.92,14,28.84,33.97,15.26,25.57,15.35,47.61,17.3,47.45,1.72-.14,.93-17.26-.72-32.89-2.52-23.86-6.38-38.07-5.05-38.28,1.26-.2,6.51,12.26,10.09,25.88,5.37,20.41,4.81,35.03,6.49,35.05,1.21,0,1.63-7.6,4.33-20.49,3.36-16.06,8.04-29.74,8.65-29.65,.43,.06-1.32,6.82-2.88,17.25-2.17,14.52-4.3,38.35-.72,38.82,2.1,.27,5.55-7.57,7.21-11.32,5.6-12.72,11.82-33.09,10.09-62,1.67,7.25,3.31,17.93,2.16,30.73-2.29,25.55-14.47,45.74-12.26,46.37,.86,.24,2.8-2.77,9.37-10.78,6.45-7.87,14.55-17.74,15.86-17.25,1.22,.45-3.28,9.9-8.65,18.33-6.76,10.61-13.56,17.48-12.98,17.79,.64,.34,7.06-8.68,18.74-15.64,21.78-12.97,51.06-12.36,51.18-11.86,.07,.25-7.52,.45-18.74,3.77-25.74,7.62-40.78,22.85-40.37,23.18,.2,.16,3.76-3.19,10.81-4.85,2.07-.49,9.31-2.11,15.86,.54,3.74,1.51,6.13,3.96,5.77,4.31-.45,.44-4.63-2.99-10.81-3.24-5.28-.21-12.24,1.89-13.7,5.93-.72,1.99,.12,3.84,.72,4.85-25.23,0-50.46,0-75.7,0Z"/>
  <path class="cls-9" d="M2074.76,609.5c-3.82-6.18-8.83-13.22-15.4-20.56-7.61-8.52-15.39-15.31-22.24-20.56,5.93,2.01,13.05,4.93,20.53,9.22,10.09,5.78,17.33,12.04,22.24,17.02-.78-3.25-2.06-7.69-4.28-12.76-12.79-29.3-41.08-44.55-40.2-45.38,.66-.63,17.53,7.41,34.22,24.11,17.93,17.95,23.71,33.95,25.66,33.33,1.99-.63-5.34-16.83-16.25-51.06-5.14-16.12-7.41-24.76-14.54-37.58-7.49-13.47-14.9-21.79-14.54-21.98,.55-.3,20.08,18.41,34.22,44.67,18.11,33.63,18.21,62.62,20.53,62.4,2.04-.19,1.1-22.7-.86-43.26-2.99-31.38-7.57-50.07-5.99-50.35,1.5-.26,7.72,16.12,11.98,34.04,6.37,26.84,5.71,46.08,7.7,46.09,1.43,.01,1.93-9.99,5.13-26.95,3.99-21.12,9.54-39.11,10.27-39,.51,.08-1.57,8.96-3.42,22.69-2.58,19.1-5.11,50.44-.86,51.06,2.49,.36,6.59-9.95,8.55-14.89,6.65-16.73,14.02-43.51,11.98-81.55,1.98,9.53,3.93,23.58,2.57,40.42-2.72,33.61-17.17,60.16-14.54,60.98,1.02,.32,3.32-3.65,11.12-14.18,7.66-10.35,17.26-23.33,18.82-22.69,1.45,.59-3.89,13.03-10.27,24.11-8.03,13.95-16.09,22.99-15.4,23.4,.76,.45,8.38-11.41,22.24-20.56,25.84-17.06,60.58-16.25,60.73-15.6,.08,.33-8.92,.59-22.24,4.96-30.54,10.02-48.39,30.05-47.9,30.49,.23,.21,4.46-4.2,12.83-6.38,2.46-.64,11.05-2.77,18.82,.71,4.44,1.99,7.27,5.21,6.84,5.67-.54,.58-5.49-3.93-12.83-4.25-6.27-.28-14.52,2.49-16.25,7.8-.85,2.62,.14,5.04,.86,6.38-29.94,0-59.88,0-89.82,0Z"/>
  <path class="cls-33" d="M2165.16,609.5c-4.54-7.34-10.5-15.7-18.29-24.43-9.04-10.12-18.28-18.19-26.43-24.43,7.04,2.39,15.51,5.86,24.39,10.95,11.99,6.87,20.6,14.31,26.43,20.22-.92-3.86-2.45-9.13-5.08-15.17-15.19-34.81-48.81-52.94-47.77-53.92,.79-.74,20.83,8.81,40.66,28.65,21.31,21.32,28.18,40.34,30.49,39.6,2.36-.75-6.35-19.99-19.31-60.66-6.11-19.15-8.81-29.41-17.28-44.65-8.9-16-17.71-25.89-17.28-26.12,.66-.35,23.85,21.88,40.66,53.08,21.52,39.96,21.64,74.4,24.39,74.14,2.43-.23,1.31-26.97-1.02-51.39-3.55-37.29-9-59.5-7.11-59.82,1.78-.31,9.17,19.16,14.23,40.44,7.57,31.89,6.78,54.75,9.15,54.76,1.7,.01,2.3-11.87,6.1-32.02,4.74-25.09,11.33-46.47,12.2-46.34,.6,.09-1.86,10.65-4.07,26.96-3.06,22.69-6.07,59.93-1.02,60.66,2.96,.43,7.83-11.82,10.16-17.69,7.9-19.88,16.66-51.7,14.23-96.89,2.35,11.32,4.67,28.01,3.05,48.02-3.23,39.93-20.4,71.48-17.28,72.46,1.21,.38,3.95-4.33,13.21-16.85,9.1-12.3,20.51-27.71,22.36-26.96,1.72,.7-4.62,15.48-12.2,28.65-9.54,16.58-19.12,27.31-18.29,27.8,.9,.54,9.95-13.56,26.43-24.43,30.7-20.27,71.98-19.31,72.16-18.54,.09,.4-10.6,.71-26.43,5.9-36.29,11.91-57.49,35.7-56.92,36.23,.28,.25,5.3-4.99,15.25-7.58,2.92-.76,13.13-3.29,22.36,.84,5.28,2.36,8.64,6.19,8.13,6.74-.64,.69-6.52-4.67-15.25-5.06-7.45-.33-17.25,2.95-19.31,9.27-1.01,3.11,.16,5.99,1.02,7.58-35.57,0-71.15,0-106.72,0Z"/>
  <path class="cls-31" d="M1786.88,609.61c-4.16-7.37-9.62-15.76-16.76-24.52-8.29-10.16-16.75-18.25-24.22-24.52,6.45,2.4,14.21,5.88,22.35,10.99,10.99,6.89,18.87,14.36,24.22,20.29-.84-3.88-2.24-9.17-4.66-15.22-13.92-34.93-44.73-53.12-43.77-54.11,.72-.75,19.09,8.84,37.25,28.75,19.52,21.4,25.82,40.47,27.94,39.74,2.16-.75-5.82-20.06-17.7-60.87-5.59-19.22-8.07-29.52-15.83-44.81-8.15-16.06-16.22-25.98-15.83-26.21,.6-.35,21.86,21.95,37.25,53.26,19.72,40.1,19.83,74.66,22.35,74.4,2.23-.23,1.2-27.07-.93-51.57-3.25-37.42-8.25-59.7-6.52-60.03,1.63-.31,8.41,19.22,13.04,40.58,6.94,32,6.22,54.94,8.38,54.95,1.56,.01,2.1-11.91,5.59-32.13,4.34-25.18,10.39-46.63,11.18-46.5,.55,.09-1.71,10.69-3.73,27.05-2.81,22.77-5.56,60.14-.93,60.87,2.71,.43,7.18-11.86,9.31-17.75,7.24-19.95,15.26-51.88,13.04-97.23,2.15,11.36,4.28,28.11,2.79,48.19-2.96,40.07-18.69,71.73-15.83,72.71,1.11,.38,3.62-4.35,12.11-16.91,8.34-12.34,18.79-27.81,20.49-27.05,1.58,.7-4.24,15.53-11.18,28.75-8.74,16.64-17.52,27.41-16.76,27.9,.83,.54,9.12-13.61,24.22-24.52,28.13-20.34,65.96-19.37,66.13-18.6,.08,.4-9.72,.71-24.22,5.92-33.26,11.95-52.69,35.82-52.16,36.35,.25,.25,4.85-5.01,13.97-7.61,2.68-.76,12.03-3.3,20.49,.85,4.84,2.37,7.92,6.21,7.45,6.76-.59,.69-5.98-4.69-13.97-5.07-6.82-.33-15.81,2.96-17.7,9.3-.93,3.12,.15,6.01,.93,7.61h-97.79Z"/>
  <path class="cls-13" d="M1879.93,609.61c-4.94-9.69-11.41-20.72-19.89-32.25-9.83-13.36-19.88-24-28.73-32.25,7.66,3.15,16.86,7.74,26.52,14.45,13.04,9.07,22.39,18.89,28.73,26.69-1-5.1-2.66-12.05-5.53-20.01-16.52-45.94-53.08-69.86-51.94-71.16,.86-.98,22.65,11.62,44.21,37.8,23.17,28.14,30.64,53.23,33.15,52.26,2.57-.99-6.9-26.39-21-80.06-6.64-25.28-9.57-38.82-18.79-58.93-9.67-21.12-19.25-34.17-18.79-34.47,.72-.46,25.94,28.87,44.21,70.05,23.39,52.74,23.53,98.19,26.52,97.85,2.64-.3,1.42-35.6-1.11-67.83-3.86-49.21-9.78-78.52-7.74-78.95,1.94-.4,9.98,25.28,15.47,53.37,8.24,42.08,7.38,72.25,9.95,72.27,1.85,.02,2.5-15.67,6.63-42.25,5.15-33.12,12.32-61.33,13.26-61.15,.66,.12-2.03,14.06-4.42,35.58-3.33,29.95-6.6,79.09-1.11,80.06,3.22,.57,8.51-15.6,11.05-23.35,8.59-26.24,18.11-68.23,15.47-127.87,2.55,14.95,5.08,36.97,3.32,63.38-3.51,52.7-22.18,94.34-18.79,95.62,1.32,.5,4.29-5.72,14.37-22.24,9.89-16.23,22.3-36.58,24.31-35.58,1.87,.93-5.03,20.43-13.26,37.8-10.37,21.88-20.79,36.04-19.89,36.69,.98,.71,10.82-17.9,28.73-32.25,33.38-26.74,78.27-25.48,78.47-24.46,.1,.52-11.53,.93-28.73,7.78-39.46,15.72-62.52,47.11-61.89,47.81,.3,.33,5.76-6.58,16.58-10.01,3.18-1.01,14.28-4.34,24.31,1.11,5.74,3.12,9.4,8.17,8.84,8.9-.7,.91-7.09-6.16-16.58-6.67-8.1-.43-18.76,3.9-21,12.23-1.1,4.1,.18,7.91,1.11,10.01h-116.04Z"/>
  <path class="cls-25" d="M1736.04,609.32c-2.71-3.95-6.27-8.46-10.92-13.16-5.4-5.45-10.91-9.8-15.78-13.16,4.2,1.29,9.26,3.16,14.56,5.9,7.16,3.7,12.3,7.71,15.78,10.89-.55-2.08-1.46-4.92-3.03-8.17-9.07-18.75-29.14-28.51-28.52-29.04,.47-.4,12.44,4.74,24.27,15.43,12.72,11.48,16.82,21.72,18.2,21.33,1.41-.4-3.79-10.77-11.53-32.67-3.64-10.32-5.26-15.84-10.31-24.05-5.31-8.62-10.57-13.94-10.31-14.07,.39-.19,14.24,11.78,24.27,28.59,12.84,21.52,12.92,40.07,14.56,39.93,1.45-.12,.78-14.53-.61-27.68-2.12-20.08-5.37-32.04-4.25-32.22,1.06-.16,5.48,10.32,8.49,21.78,4.52,17.18,4.05,29.49,5.46,29.5,1.02,0,1.37-6.39,3.64-17.24,2.83-13.52,6.77-25.03,7.28-24.96,.36,.05-1.11,5.74-2.43,14.52-1.83,12.22-3.62,32.28-.61,32.67,1.77,.23,4.67-6.37,6.07-9.53,4.72-10.71,9.94-27.85,8.49-52.18,1.4,6.1,2.79,15.09,1.82,25.87-1.93,21.51-12.18,38.5-10.31,39.03,.72,.2,2.36-2.33,7.89-9.08,5.43-6.62,12.24-14.93,13.35-14.52,1.03,.38-2.76,8.34-7.28,15.43-5.69,8.93-11.42,14.71-10.92,14.97,.54,.29,5.94-7.3,15.78-13.16,18.33-10.91,42.97-10.4,43.08-9.98,.06,.21-6.33,.38-15.78,3.18-21.66,6.41-34.32,19.23-33.98,19.51,.16,.14,3.16-2.69,9.1-4.08,1.74-.41,7.84-1.77,13.35,.45,3.15,1.27,5.16,3.33,4.85,3.63-.38,.37-3.89-2.52-9.1-2.72-4.45-.18-10.3,1.59-11.53,4.99-.61,1.67,.1,3.23,.61,4.08h-63.71Z"/>
  <path class="cls-41" d="M1800.16,609.32c-3.22-4.7-7.44-10.05-12.98-15.64-6.41-6.48-12.97-11.64-18.74-15.64,4.99,1.53,11,3.75,17.3,7.01,8.5,4.4,14.61,9.16,18.74,12.94-.65-2.47-1.74-5.84-3.6-9.71-10.78-22.28-34.62-33.88-33.88-34.51,.56-.48,14.78,5.64,28.84,18.33,15.11,13.65,19.99,25.81,21.63,25.34,1.67-.48-4.5-12.79-13.7-38.82-4.33-12.26-6.25-18.82-12.26-28.58-6.31-10.24-12.56-16.57-12.26-16.71,.47-.23,16.92,14,28.84,33.97,15.26,25.57,15.35,47.61,17.3,47.45,1.72-.14,.93-17.26-.72-32.89-2.52-23.86-6.38-38.07-5.05-38.28,1.26-.2,6.51,12.26,10.09,25.88,5.37,20.41,4.81,35.03,6.49,35.05,1.21,0,1.63-7.6,4.33-20.49,3.36-16.06,8.04-29.74,8.65-29.65,.43,.06-1.32,6.82-2.88,17.25-2.17,14.52-4.3,38.35-.72,38.82,2.1,.27,5.55-7.57,7.21-11.32,5.6-12.72,11.82-33.09,10.09-62,1.67,7.25,3.31,17.93,2.16,30.73-2.29,25.55-14.47,45.74-12.26,46.37,.86,.24,2.8-2.77,9.37-10.78,6.45-7.87,14.55-17.74,15.86-17.25,1.22,.45-3.28,9.9-8.65,18.33-6.76,10.61-13.56,17.48-12.98,17.79,.64,.34,7.06-8.68,18.74-15.64,21.78-12.97,51.06-12.36,51.18-11.86,.07,.25-7.52,.45-18.74,3.77-25.74,7.62-40.78,22.85-40.37,23.18,.2,.16,3.76-3.19,10.81-4.85,2.07-.49,9.31-2.11,15.86,.54,3.74,1.51,6.13,3.96,5.77,4.31-.45,.44-4.63-2.99-10.81-3.24-5.28-.21-12.24,1.89-13.7,5.93-.72,1.99,.12,3.84,.72,4.85h-75.7Z"/>
  <path class="cls-16" d="M1872.18,609.32c-3.82-6.18-8.83-13.22-15.4-20.56-7.61-8.52-15.39-15.31-22.24-20.56,5.93,2.01,13.05,4.93,20.53,9.22,10.09,5.78,17.33,12.04,22.24,17.02-.78-3.25-2.06-7.69-4.28-12.76-12.79-29.3-41.08-44.55-40.2-45.38,.66-.63,17.53,7.41,34.22,24.11,17.93,17.95,23.71,33.95,25.66,33.33,1.99-.63-5.34-16.83-16.25-51.06-5.14-16.12-7.41-24.76-14.54-37.58-7.49-13.47-14.9-21.79-14.54-21.98,.55-.3,20.08,18.41,34.22,44.67,18.11,33.63,18.21,62.62,20.53,62.4,2.04-.19,1.1-22.7-.86-43.26-2.99-31.38-7.57-50.07-5.99-50.35,1.5-.26,7.72,16.12,11.98,34.04,6.37,26.84,5.71,46.08,7.7,46.09,1.43,.01,1.93-9.99,5.13-26.95,3.99-21.12,9.54-39.11,10.27-39,.51,.08-1.57,8.96-3.42,22.69-2.58,19.1-5.11,50.44-.86,51.06,2.49,.36,6.59-9.95,8.55-14.89,6.65-16.73,14.02-43.51,11.98-81.55,1.98,9.53,3.93,23.58,2.57,40.42-2.72,33.61-17.17,60.16-14.54,60.98,1.02,.32,3.32-3.65,11.12-14.18,7.66-10.35,17.26-23.33,18.82-22.69,1.45,.59-3.89,13.03-10.27,24.11-8.03,13.95-16.09,22.99-15.4,23.4,.76,.45,8.38-11.41,22.24-20.56,25.84-17.06,60.58-16.25,60.73-15.6,.08,.33-8.92,.59-22.24,4.96-30.54,10.02-48.39,30.05-47.9,30.49,.23,.21,4.46-4.2,12.83-6.38,2.46-.64,11.05-2.77,18.82,.71,4.44,1.99,7.27,5.21,6.84,5.67-.54,.58-5.49-3.93-12.83-4.25-6.27-.28-14.52,2.49-16.25,7.8-.85,2.62,.14,5.04,.86,6.38h-89.82Z"/>
  <path class="cls-29" d="M1642.67,609.43c-4.16-7.37-9.62-15.76-16.76-24.52-8.29-10.16-16.75-18.25-24.22-24.52,6.45,2.4,14.21,5.88,22.35,10.99,10.99,6.89,18.87,14.36,24.22,20.29-.84-3.88-2.24-9.17-4.66-15.22-13.92-34.93-44.73-53.12-43.77-54.11,.72-.75,19.09,8.84,37.25,28.75,19.52,21.4,25.82,40.47,27.94,39.74,2.16-.75-5.82-20.06-17.7-60.87-5.59-19.22-8.07-29.52-15.83-44.81-8.15-16.06-16.22-25.98-15.83-26.21,.6-.35,21.86,21.95,37.25,53.26,19.72,40.1,19.83,74.66,22.35,74.4,2.23-.23,1.2-27.07-.93-51.57-3.25-37.42-8.25-59.7-6.52-60.03,1.63-.31,8.41,19.22,13.04,40.58,6.94,32,6.22,54.94,8.38,54.95,1.56,.01,2.1-11.91,5.59-32.13,4.34-25.18,10.39-46.63,11.18-46.5,.55,.09-1.71,10.69-3.73,27.05-2.81,22.77-5.56,60.14-.93,60.87,2.71,.43,7.18-11.86,9.31-17.75,7.24-19.95,15.26-51.88,13.04-97.23,2.15,11.36,4.28,28.11,2.79,48.19-2.96,40.07-18.69,71.73-15.83,72.71,1.11,.38,3.62-4.35,12.11-16.91,8.34-12.34,18.79-27.81,20.49-27.05,1.58,.7-4.24,15.53-11.18,28.75-8.74,16.64-17.52,27.41-16.76,27.9,.83,.54,9.12-13.61,24.22-24.52,28.13-20.34,65.96-19.37,66.13-18.6,.08,.4-9.72,.71-24.22,5.92-33.26,11.95-52.69,35.82-52.16,36.35,.25,.25,4.85-5.01,13.97-7.61,2.68-.76,12.03-3.3,20.49,.85,4.84,2.37,7.92,6.21,7.45,6.76-.59,.69-5.98-4.69-13.97-5.07-6.82-.33-15.81,2.96-17.7,9.3-.93,3.12,.15,6.01,.93,7.61-32.6,0-65.2,0-97.79,0Z"/>
  <path class="cls-19" d="M1591.83,609.15c-2.71-3.95-6.27-8.46-10.92-13.16-5.4-5.45-10.91-9.8-15.78-13.16,4.2,1.29,9.26,3.16,14.56,5.9,7.16,3.7,12.3,7.71,15.78,10.89-.55-2.08-1.46-4.92-3.03-8.17-9.07-18.75-29.14-28.51-28.52-29.04,.47-.4,12.44,4.74,24.27,15.43,12.72,11.48,16.82,21.72,18.2,21.33,1.41-.4-3.79-10.77-11.53-32.67-3.64-10.32-5.26-15.84-10.31-24.05-5.31-8.62-10.57-13.94-10.31-14.07,.39-.19,14.24,11.78,24.27,28.59,12.84,21.52,12.92,40.07,14.56,39.93,1.45-.12,.78-14.53-.61-27.68-2.12-20.08-5.37-32.04-4.25-32.22,1.06-.16,5.48,10.32,8.49,21.78,4.52,17.18,4.05,29.49,5.46,29.5,1.02,0,1.37-6.39,3.64-17.24,2.83-13.52,6.77-25.03,7.28-24.96,.36,.05-1.11,5.74-2.43,14.52-1.83,12.22-3.62,32.28-.61,32.67,1.77,.23,4.67-6.37,6.07-9.53,4.72-10.71,9.94-27.85,8.49-52.18,1.4,6.1,2.79,15.09,1.82,25.87-1.93,21.51-12.18,38.5-10.31,39.03,.72,.2,2.36-2.33,7.89-9.08,5.43-6.62,12.24-14.93,13.35-14.52,1.03,.38-2.76,8.34-7.28,15.43-5.69,8.93-11.42,14.71-10.92,14.97,.54,.29,5.94-7.3,15.78-13.16,18.33-10.91,42.97-10.4,43.08-9.98,.06,.21-6.33,.38-15.78,3.18-21.66,6.41-34.32,19.23-33.98,19.51,.16,.14,3.16-2.69,9.1-4.08,1.74-.41,7.84-1.77,13.35,.45,3.15,1.27,5.16,3.33,4.85,3.63-.38,.37-3.89-2.52-9.1-2.72-4.45-.18-10.3,1.59-11.53,4.99-.61,1.67,.1,3.23,.61,4.08-21.24,0-42.47,0-63.71,0Z"/>
  <path class="cls-36" d="M1655.95,609.15c-3.22-4.7-7.44-10.05-12.98-15.64-6.41-6.48-12.97-11.64-18.74-15.64,4.99,1.53,11,3.75,17.3,7.01,8.5,4.4,14.61,9.16,18.74,12.94-.65-2.47-1.74-5.84-3.6-9.71-10.78-22.28-34.62-33.88-33.88-34.51,.56-.48,14.78,5.64,28.84,18.33,15.11,13.65,19.99,25.81,21.63,25.34,1.67-.48-4.5-12.79-13.7-38.82-4.33-12.26-6.25-18.82-12.26-28.58-6.31-10.24-12.56-16.57-12.26-16.71,.47-.23,16.92,14,28.84,33.97,15.26,25.57,15.35,47.61,17.3,47.45,1.72-.14,.93-17.26-.72-32.89-2.52-23.86-6.38-38.07-5.05-38.28,1.26-.2,6.51,12.26,10.09,25.88,5.37,20.41,4.81,35.03,6.49,35.05,1.21,0,1.63-7.6,4.33-20.49,3.36-16.06,8.04-29.74,8.65-29.65,.43,.06-1.32,6.82-2.88,17.25-2.17,14.52-4.3,38.35-.72,38.82,2.1,.27,5.55-7.57,7.21-11.32,5.6-12.72,11.82-33.09,10.09-62,1.67,7.25,3.31,17.93,2.16,30.73-2.29,25.55-14.47,45.74-12.26,46.37,.86,.24,2.8-2.77,9.37-10.78,6.45-7.87,14.55-17.74,15.86-17.25,1.22,.45-3.28,9.9-8.65,18.33-6.76,10.61-13.56,17.48-12.98,17.79,.64,.34,7.06-8.68,18.74-15.64,21.78-12.97,51.06-12.36,51.18-11.86,.07,.25-7.52,.45-18.74,3.77-25.74,7.62-40.78,22.85-40.37,23.18,.2,.16,3.76-3.19,10.81-4.85,2.07-.49,9.31-2.11,15.86,.54,3.74,1.51,6.13,3.96,5.77,4.31-.45,.44-4.63-2.99-10.81-3.24-5.28-.21-12.24,1.89-13.7,5.93-.72,1.99,.12,3.84,.72,4.85-25.23,0-50.46,0-75.7,0Z"/>
  <path class="cls-6" d="M1473.24,610.64c2.71-3.95,6.27-8.46,10.92-13.16,5.4-5.45,10.91-9.8,15.78-13.16-4.2,1.29-9.26,3.16-14.56,5.9-7.16,3.7-12.3,7.71-15.78,10.89,.55-2.08,1.46-4.92,3.03-8.17,9.07-18.75,29.14-28.51,28.52-29.04-.47-.4-12.44,4.74-24.27,15.43-12.72,11.48-16.82,21.72-18.2,21.33-1.41-.4,3.79-10.77,11.53-32.67,3.64-10.32,5.26-15.84,10.31-24.05,5.31-8.62,10.57-13.94,10.31-14.07-.39-.19-14.24,11.78-24.27,28.59-12.84,21.52-12.92,40.07-14.56,39.93-1.45-.12-.78-14.53,.61-27.68,2.12-20.08,5.37-32.04,4.25-32.22-1.06-.16-5.48,10.32-8.49,21.78-4.52,17.18-4.05,29.49-5.46,29.5-1.02,0-1.37-6.39-3.64-17.24-2.83-13.52-6.77-25.03-7.28-24.96-.36,.05,1.11,5.74,2.43,14.52,1.83,12.22,3.62,32.28,.61,32.67-1.77,.23-4.67-6.37-6.07-9.53-4.72-10.71-9.94-27.85-8.49-52.18-1.4,6.1-2.79,15.09-1.82,25.87,1.93,21.51,12.18,38.5,10.31,39.03-.72,.2-2.36-2.33-7.89-9.08-5.43-6.62-12.24-14.93-13.35-14.52-1.03,.38,2.76,8.34,7.28,15.43,5.69,8.93,11.42,14.71,10.92,14.97-.54,.29-5.94-7.3-15.78-13.16-18.33-10.91-42.97-10.4-43.08-9.98-.06,.21,6.33,.38,15.78,3.18,21.66,6.41,34.32,19.23,33.98,19.51-.16,.14-3.16-2.69-9.1-4.08-1.74-.41-7.84-1.77-13.35,.45-3.15,1.27-5.16,3.33-4.85,3.63,.38,.37,3.89-2.52,9.1-2.72,4.45-.18,10.3,1.59,11.53,4.99,.61,1.67-.1,3.23-.61,4.08,21.24,0,42.47,0,63.71,0Z"/>
  <path class="cls-14" d="M1533.19,609.73c-2.71-3.95-6.27-8.46-10.92-13.16-5.4-5.45-10.91-9.8-15.78-13.16,4.2,1.29,9.26,3.16,14.56,5.9,7.16,3.7,12.3,7.71,15.78,10.89-.55-2.08-1.46-4.92-3.03-8.17-9.07-18.75-29.14-28.51-28.52-29.04,.47-.4,12.44,4.74,24.27,15.43,12.72,11.48,16.82,21.72,18.2,21.33,1.41-.4-3.79-10.77-11.53-32.67-3.64-10.32-5.26-15.84-10.31-24.05-5.31-8.62-10.57-13.94-10.31-14.07,.39-.19,14.24,11.78,24.27,28.59,12.84,21.52,12.92,40.07,14.56,39.93,1.45-.12,.78-14.53-.61-27.68-2.12-20.08-5.37-32.04-4.25-32.22,1.06-.16,5.48,10.32,8.49,21.78,4.52,17.18,4.05,29.49,5.46,29.5,1.02,0,1.37-6.39,3.64-17.24,2.83-13.52,6.77-25.03,7.28-24.96,.36,.05-1.11,5.74-2.43,14.52-1.83,12.22-3.62,32.28-.61,32.67,1.77,.23,4.67-6.37,6.07-9.53,4.72-10.71,9.94-27.85,8.49-52.18,1.4,6.1,2.79,15.09,1.82,25.87-1.93,21.51-12.18,38.5-10.31,39.03,.72,.2,2.36-2.33,7.89-9.08,5.43-6.62,12.24-14.93,13.35-14.52,1.03,.38-2.76,8.34-7.28,15.43-5.69,8.93-11.42,14.71-10.92,14.97,.54,.29,5.94-7.3,15.78-13.16,18.33-10.91,42.97-10.4,43.08-9.98,.06,.21-6.33,.38-15.78,3.18-21.66,6.41-34.32,19.23-33.98,19.51,.16,.14,3.16-2.69,9.1-4.08,1.74-.41,7.84-1.77,13.35,.45,3.15,1.27,5.16,3.33,4.85,3.63-.38,.37-3.89-2.52-9.1-2.72-4.45-.18-10.3,1.59-11.53,4.99-.61,1.67,.1,3.23,.61,4.08-21.24,0-42.47,0-63.71,0Z"/>
  <path class="cls-3" d="M1474.86,609.73c-2.71-3.95-6.27-8.46-10.92-13.16-5.4-5.45-10.91-9.8-15.78-13.16,4.2,1.29,9.26,3.16,14.56,5.9,7.16,3.7,12.3,7.71,15.78,10.89-.55-2.08-1.46-4.92-3.03-8.17-9.07-18.75-29.14-28.51-28.52-29.04,.47-.4,12.44,4.74,24.27,15.43,12.72,11.48,16.82,21.72,18.2,21.33,1.41-.4-3.79-10.77-11.53-32.67-3.64-10.32-5.26-15.84-10.31-24.05-5.31-8.62-10.57-13.94-10.31-14.07,.39-.19,14.24,11.78,24.27,28.59,12.84,21.52,12.92,40.07,14.56,39.93,1.45-.12,.78-14.53-.61-27.68-2.12-20.08-5.37-32.04-4.25-32.22,1.06-.16,5.48,10.32,8.49,21.78,4.52,17.18,4.05,29.49,5.46,29.5,1.02,0,1.37-6.39,3.64-17.24,2.83-13.52,6.77-25.03,7.28-24.96,.36,.05-1.11,5.74-2.43,14.52-1.83,12.22-3.62,32.28-.61,32.67,1.77,.23,4.67-6.37,6.07-9.53,4.72-10.71,9.94-27.85,8.49-52.18,1.4,6.1,2.79,15.09,1.82,25.87-1.93,21.51-12.18,38.5-10.31,39.03,.72,.2,2.36-2.33,7.89-9.08,5.43-6.62,12.24-14.93,13.35-14.52,1.03,.38-2.76,8.34-7.28,15.43-5.69,8.93-11.42,14.71-10.92,14.97,.54,.29,5.94-7.3,15.78-13.16,18.33-10.91,42.97-10.4,43.08-9.98,.06,.21-6.33,.38-15.78,3.18-21.66,6.41-34.32,19.23-33.98,19.51,.16,.14,3.16-2.69,9.1-4.08,1.74-.41,7.84-1.77,13.35,.45,3.15,1.27,5.16,3.33,4.85,3.63-.38,.37-3.89-2.52-9.1-2.72-4.45-.18-10.3,1.59-11.53,4.99-.61,1.67,.1,3.23,.61,4.08-21.24,0-42.47,0-63.71,0Z"/>
</svg>